<svg xmlns="http://www.w3.org/2000/svg" width="248" height="480" viewBox="0 0 310 600" xmlns:xlink="http://www.w3.org/1999/xlink">
<defs>
<radialGradient id="greyRadialGradient" gradientUnits="userSpaceOnUse" cx="0" cy="0" fx="0" fy="0" r="100">
<stop offset="10%" stop-color="#ffffff"/>
<stop offset="80%" stop-color="#d5d5d5"/>
</radialGradient>
<radialGradient id="greeenRadialGradient" gradientUnits="userSpaceOnUse" cx="0" cy="0" fx="0" fy="0" r="100">
<stop offset="10%" stop-color="#C8DCB0"/>
<stop offset="80%" stop-color="#6AEB59"/>
</radialGradient>
</defs>
<title>Kabbalistic Tree of life with the ten Sephiroth and the 22 Hebrew letters as they are presented in the Sefer Yetzirah (Book of Formation)</title>
<g transform="translate(155,313)scale(0.375,-0.375)">
<g stroke-width="16" fill="none">
<path stroke="rgb(200,220,176)" d="M0,653.5605047L-283,490.1703785
M0,653.5605047L283,490.1703785 M283,490.1703785L-283,163.3901262
M-283,490.1703785L283,163.3901262 M0,0L283,490.1703785 M0,0L-283,490.1703785
M0,0L283,163.3901262 M0,0L-283,163.3901262 M0,0L283,-163.3901262
M0,0L-283,-163.3901262 M0,-326.7802524L283,-163.3901262
M0,-326.7802524L-283,-163.3901262"/>
<path stroke="rgb(155,179,207)" d="M283,490.1703785V-163.3901262
M-283,490.1703785V-163.3901262 M0,653.5605047V-653.5605047"/>
<path stroke="rgb(226,173,173)" d="M283,490.1703785H-283 M283,163.3901262H-283
M283,-163.3901262H-283"/></g>
<g stroke-width="4" stroke="rgb(0,0,0)">
<circle fill="url(#greyRadialGradient)" r="100"/>
<g transform="translate(283,163.3901262)"><circle fill="url(#greyRadialGradient)" r="100"/></g>
<g transform="translate(283,-163.3901262)"><circle fill="url(#greyRadialGradient)" r="100"/></g>
<g transform="translate(-283,163.3901262)"><circle fill="url(#greyRadialGradient)" r="100"/></g>
<g transform="translate(-283,-163.3901262)"><circle fill="url(#greyRadialGradient)" r="100"/></g>
<g transform="translate(0,-326.7802524)"><circle fill="url(#greyRadialGradient)" r="100"/></g>
<g transform="translate(0,-653.5605047)"><circle fill="url(#greyRadialGradient)" r="100"/></g>
<g transform="translate(283,490.1703785)"><circle fill="url(#greyRadialGradient)" r="100"/></g>
<g transform="translate(-283,490.1703785)"><circle fill="url(#greyRadialGradient)" r="100"/></g>
<g transform="translate(0,653.5605047)"><circle fill="url(#greyRadialGradient)" r="100"/></g>
</g>
<!-- Latin text -->
<path d="M-38.654,719.006
C-38.15,718.964,-37.73,718.964,-37.562,718.964
C-36.302,718.88,-35.798,718.544,-35.798,717.704
C-35.798,716.78,-36.764,715.52,-39.074,713.378L-46.5,706.616V715.226
C-46.5,718.292,-46.039,718.754,-42.644,719.006V719.8H-54.572V719.006
C-51.296,718.754,-50.8,718.208,-50.8,715.226V697.04
C-50.8,693.554,-51.261,693.008,-54.572,692.798V692H-42.728V692.798
C-46.004,693.008,-46.5,693.512,-46.5,696.578V704.432L-45.416,705.314L-40.964,700.904
C-37.772,697.754,-35.504,694.772,-35.504,693.764
C-35.504,693.176,-36.092,692.882,-37.268,692.84
C-37.478,692.84,-37.94,692.84,-38.444,692.798V692H-25.634V692.8
C-27.818,692.842,-28.406,693.262,-32.228,697.334L-42.014,707.834L-34.034,715.73
C-31.178,718.46,-30.506,718.796,-27.65,719.006V719.8H-38.654Z
M-8.564,698.888
C-10.58,695.696,-12.386,694.48,-15.074,694.48
C-17.468,694.48,-19.274,695.697,-20.492,698.09
C-21.248,699.705,-21.542,701.107,-21.626,703.7H-8.69
C-9.026,706.396,-9.446,707.599,-10.496,708.926
C-11.755,710.438,-13.688,711.319,-15.872,711.319
C-17.971,711.319,-19.946,710.563,-21.542,709.135
C-23.515,707.414,-24.649,704.432,-24.649,700.988
C-24.649,695.192,-21.626,691.58,-16.796,691.58
C-12.806,691.58,-9.656,694.057,-7.892,698.594Z
M-21.542,705
C-21.08,708.261,-19.652,709.82,-17.09,709.82
C-14.528,709.82,-13.52,708.646,-12.974,705Z
M3.71,710.9H-0.5V715.772
C-0.5,716.192,-0.547,716.318,-0.826,716.318
C-1.12,715.94,-1.372,715.562,-1.666,715.142
C-3.262,712.832,-5.068,710.816,-5.74,710.648
C-6.202,710.354,-6.454,710.06,-6.454,709.85
C-6.454,709.743,-6.412,709.671,-6.286,709.6H-4.1V696.915
C-4.1,693.387,-2.827,691.581,-0.322,691.581
C1.736,691.581,3.332,692.588,4.718,694.772L4.172,695.234
C3.29,694.185,2.576,693.781,1.652,693.781
C0.098,693.781,-0.5,694.909,-0.5,697.544V709.6H3.71Z
M11.2,706.406
C12.962,708.338,14.22,709.02,15.856,709.02
C17.956,709.02,19,707.519,19,704.6V696.284
C19,693.428,18.581,692.882,16.15,692.63V692H25.054V692.63
C22.786,693.05,22.6,693.386,22.6,696.284V704.642
C22.6,709.052,20.813,711.32,17.368,711.32
C14.892,711.32,13.13,710.312,11.2,707.792V720.56L10.984,720.686
C9.556,720.182,8.506,719.846,6.154,719.174L5.02,718.838V718.166
C5.188,718.208,5.314,718.208,5.524,718.208
C7.33,718.208,7.6,717.872,7.6,716.066V696.284
C7.6,693.344,7.354,692.966,4.978,692.63V692H14.05V692.63
C11.614,692.882,11.2,693.386,11.2,696.284Z
M42.736,698.888
C40.72,695.696,38.914,694.48,36.226,694.48
C33.832,694.48,32.026,695.697,30.808,698.09
C30.052,699.705,29.758,701.107,29.674,703.7H42.61
C42.274,706.396,41.854,707.599,40.804,708.926
C39.544,710.438,37.612,711.319,35.428,711.319
C33.328,711.319,31.354,710.563,29.758,709.135
C27.784,707.414,26.65,704.432,26.65,700.988
C26.65,695.192,29.674,691.58,34.504,691.58
C38.494,691.58,41.644,694.057,43.408,698.594Z
M29.758,705
C30.22,708.261,31.648,709.82,34.21,709.82
C36.772,709.82,37.78,708.646,38.326,705Z
M44.594,708.38
C45.182,708.506,45.56,708.564,46.064,708.564
C47.114,708.564,47.5,707.888,47.5,706.028V695.528
C47.5,693.428,47.205,693.134,44.51,692.63V692H54.59V692.6
C51.734,692.727,51.1,693.363,51.1,695.78V705.23
C51.1,706.574,52.856,708.69,53.96,708.69
C54.211,708.69,54.589,708.475,55.051,708.044
C55.723,707.456,56.185,707.22,56.731,707.22
C57.739,707.22,58.369,707.928,58.369,709.094
C58.369,710.48,57.487,711.32,56.059,711.32
C54.324,711.32,53.124,710.354,51.099,707.372V711.235L50.81,711.319
C48.584,710.396,47.072,709.849,44.594,709.052Z
M-332.286,556.4V555.6
C-328.758,555.39,-328.3,554.929,-328.3,551.826V533.178
C-328.3,530.07,-328.84,529.524,-332.286,529.398V528.601H-318.258
C-314.982,528.601,-312,529.482,-310.446,530.91
C-308.934,532.254,-308.1,534.144,-308.1,536.16
C-308.1,538.008,-308.854,539.688,-310.152,540.906
C-311.412,542.04,-312.546,542.544,-315.276,543.216
C-313.092,543.762,-312.21,544.182,-311.202,545.064
C-310.152,545.988,-309.5,547.542,-309.5,549.264
C-309.5,553.968,-313.245,556.4,-320.526,556.4Z
M-324,542.3
C-319.91,542.3,-317.97,542.088,-316.452,541.452
C-314.058,540.444,-312.9,538.764,-312.9,536.118
C-312.9,533.85,-313.79,532.212,-315.486,531.246
C-316.83,530.49,-318.552,530.2,-321.324,530.2
C-323.382,530.2,-324,530.568,-324,531.876Z
M-324,544V553.59
C-324,554.471,-323.696,554.8,-323.046,554.8H-321.198
C-316.368,554.8,-313.8,552.801,-313.8,549.096
C-313.8,545.82,-316.028,544,-319.98,544Z
M-297.65,547.92L-304.16,545.61V544.98L-303.824,545.022
C-303.32,545.106,-302.774,545.148,-302.396,545.148
C-301.388,545.148,-301,544.476,-301,542.628V532.885
C-301,529.861,-301.421,529.399,-304.328,529.231V528.601H-294.374V529.231
C-297.146,529.441,-297.4,529.861,-297.4,532.885V547.794Z
M-299.624,557.282
C-300.758,557.282,-301.724,556.318,-301.724,555.144
C-301.724,553.968,-300.8,552.982,-299.624,552.982
C-298.406,552.982,-297.44,553.915,-297.44,555.144
C-297.44,556.32,-298.406,557.282,-299.624,557.282Z
M-292.628,545.316
C-292.376,545.442,-291.956,545.484,-291.494,545.484
C-290.318,545.484,-290,544.854,-290,542.796V532.38
C-290,529.986,-290.451,529.398,-292.544,529.23V528.6H-283.64V529.23
C-285.782,529.398,-286.4,529.902,-286.4,531.414V543.216
C-284.39,545.106,-283.468,545.62,-282.086,545.62
C-280.028,545.62,-279.1,544.315,-279.1,541.536V532.758
C-279.1,530.112,-279.63,529.398,-281.666,529.23V528.6H-272.93V529.23
C-274.988,529.44,-275.5,529.944,-275.5,532.002V541.62
C-275.5,545.568,-277.345,547.92,-280.448,547.92
C-282.376,547.92,-283.676,547.206,-286.526,544.518V547.836L-286.832,547.92
C-288.89,547.164,-290.318,546.702,-292.628,546.03Z
M-253.736,531.372
C-254.45,530.784,-254.954,530.538,-255.584,530.538
C-256.55,530.538,-256.8,531.135,-256.8,533.01V541.2
C-256.8,543.384,-257.021,544.602,-257.683,545.61
C-258.607,547.122,-260.413,547.919,-262.891,547.919
C-266.839,547.919,-269.899,545.862,-269.899,543.216
C-269.899,542.25,-269.081,541.41,-268.141,541.41
C-267.133,541.41,-266.199,542.25,-266.199,543.174
C-266.199,543.342,-266.267,543.552,-266.335,543.845
C-266.419,544.223,-266.409,544.559,-266.409,544.853
C-266.409,545.987,-265.088,546.919,-263.437,546.919
C-261.379,546.919,-260.199,545.698,-260.199,543.425V540.864
C-266.7,538.26,-267.418,537.924,-269.233,536.328
C-270.157,535.488,-270.699,534.06,-270.699,532.674
C-270.699,530.028,-268.87,528.18,-266.335,528.18
C-264.488,528.18,-262.766,529.062,-260.204,531.246
C-259.994,529.062,-259.238,528.18,-257.516,528.18
C-256.088,528.18,-255.206,528.684,-253.736,530.28Z
M-260.2,533.766
C-260.2,532.464,-260.419,532.086,-261.338,531.582
C-262.346,530.994,-263.522,530.58,-264.404,530.58
C-265.874,530.58,-267,532.024,-267,533.85V534.018
C-267,536.496,-265.279,538.008,-260.2,539.856Z
M-247.1,543.006
C-245.338,544.938,-244.08,545.62,-242.444,545.62
C-240.344,545.62,-239.3,544.119,-239.3,541.2V532.884
C-239.3,530.028,-239.719,529.482,-242.15,529.23V528.6H-233.246V529.23
C-235.514,529.65,-235.7,529.986,-235.7,532.884V541.242
C-235.7,545.652,-237.487,547.92,-240.932,547.92
C-243.408,547.92,-245.17,546.912,-247.1,544.392V557.16L-247.316,557.286
C-248.744,556.782,-249.794,556.446,-252.146,555.774L-253.28,555.438V554.766
C-253.112,554.808,-252.986,554.808,-252.776,554.808
C-250.97,554.808,-250.7,554.472,-250.7,552.666V532.884
C-250.7,529.944,-250.946,529.566,-253.322,529.23V528.6H-244.25V529.23
C-246.686,529.482,-247.1,529.986,-247.1,532.884Z
M226.94,537.682L226.607,547.188H225.83
C225.608,546.309,225.016,545.802,224.276,545.802
C223.944,545.802,223.388,545.929,222.833,546.184
C221.021,546.855,219.171,547.188,217.432,547.188
C214.398,547.188,211.327,545.887,209.033,543.58
C206.443,540.976,205.001,537.07,205.001,532.45
C205.001,528.544,206.124,524.932,208.034,522.538
C210.254,519.808,213.657,518.212,217.321,518.212
C221.501,518.212,225.165,520.144,227.421,523.546L226.756,524.302
C224.018,521.32,221.576,520.012,218.505,520.012
C216.174,520.012,214.102,520.869,212.511,522.496
C210.476,524.554,209.301,528.334,209.301,532.996
C209.301,540.597,212.753,545.488,218.135,545.488
C220.244,545.488,222.168,544.614,223.648,542.95
C224.832,541.601,225.386,540.421,226.09,537.682Z
M234.5,533.206
C236.057,535.138,237.17,535.82,238.616,535.82
C240.466,535.82,241.4,534.319,241.4,531.4V523.084
C241.4,520.228,241.029,519.682,238.875,519.43V518.8H246.719V519.43
C244.721,519.85,244.5,520.186,244.5,523.084V531.442
C244.5,535.852,242.946,538.12,239.948,538.12
C237.761,538.12,236.205,537.112,234.5,534.592V547.36L234.324,547.486
C233.066,546.982,232.141,546.646,230.069,545.974L229.071,545.638V544.966
C229.219,545.008,229.329,545.008,229.514,545.008
C231.105,545.008,231.4,544.672,231.4,542.866V523.084
C231.4,520.144,231.178,519.766,229.033,519.43V518.8H237.025V519.43
C234.879,519.682,234.5,520.186,234.5,523.084Z
M256.45,538.12
C251.64,538.12,248.3,534.088,248.3,528.292
C248.3,522.622,251.73,518.38,256.376,518.38
C261.038,518.38,264.6,522.832,264.6,528.628
C264.6,534.13,261.192,538.12,256.45,538.12Z
M255.969,536.92
C259.077,536.92,261.3,532.898,261.3,527.158
C261.3,522.412,259.62,519.58,256.82,519.58
C255.377,519.58,254.008,520.579,253.231,522.244
C252.195,524.428,251.6,527.368,251.6,530.35
C251.6,534.34,253.34,536.92,255.969,536.92Z
M280.426,525.352
C278.65,522.412,277.318,521.38,275.209,521.38
C271.842,521.38,269.4,524.75,269.4,529.594
C269.4,533.92,271.465,536.92,274.506,536.92
C275.838,536.92,276.319,536.454,276.689,534.886L276.911,533.962
C277.207,532.786,277.873,532.03,278.65,532.03
C279.612,532.03,280.426,532.828,280.426,533.794
C280.426,536.146,277.836,538.12,274.728,538.12
C272.915,538.12,271.028,537.28,269.511,535.768
C267.661,533.92,266.6,531.064,266.6,527.746
C266.6,522.286,269.533,518.38,273.655,518.38
C275.32,518.38,276.8,519.052,278.132,520.354
C279.13,521.362,279.833,522.496,280.943,524.974Z
M287.9,533.206
C289.457,535.138,290.57,535.82,292.016,535.82
C293.866,535.82,294.8,534.319,294.8,531.4V523.084
C294.8,520.228,294.429,519.682,292.275,519.43V518.8H300.119V519.43
C298.121,519.85,297.9,520.186,297.9,523.084V531.442
C297.9,535.852,296.346,538.12,293.348,538.12
C291.161,538.12,289.605,537.112,287.9,534.592V547.36L287.724,547.486
C286.467,546.982,285.542,546.646,283.469,545.974L282.471,545.638V544.966
C282.619,545.008,282.729,545.008,282.915,545.008
C284.505,545.008,284.801,544.672,284.801,542.866V523.084
C284.801,520.144,284.579,519.766,282.434,519.43V518.8H290.426V519.43
C288.28,519.682,287.901,520.186,287.901,523.084Z
M301.351,535.516
C301.832,535.642,302.128,535.684,302.535,535.684
C303.497,535.684,303.8,535.012,303.8,532.996V522.37
C303.8,520.102,303.288,519.472,301.24,519.43V518.8H309.454V519.4
C307.493,519.485,306.9,519.953,306.9,521.614V533.458
C306.9,533.542,307.216,533.962,307.492,534.256
C308.417,535.221,310.008,535.919,311.303,535.919
C312.931,535.919,313.799,534.455,313.799,531.526V522.412
C313.799,520.06,313.383,519.598,311.229,519.43V518.8H319.517V519.4
C317.408,519.442,316.899,520.163,316.899,522.79V533.374
C317.996,535.18,319.203,535.92,320.886,535.92
C322.995,535.92,323.699,534.79,323.699,531.316V522.454
C323.699,520.06,323.398,519.724,321.219,519.43V518.8H329.322V519.43L328.36,519.514
C327.25,519.598,326.799,520.354,326.799,521.992V530.644
C326.799,535.6,325.346,538.12,322.477,538.12
C320.331,538.12,318.444,537.028,316.447,534.592
C315.781,536.986,314.523,538.12,312.525,538.12
C310.886,538.12,309.843,537.532,306.752,534.886V538.036L306.531,538.12
C304.644,537.322,303.386,536.86,301.351,536.23Z
M345.754,521.572
C345.125,520.984,344.681,520.738,344.126,520.738
C343.275,520.738,343,521.335,343,523.21V531.4
C343,533.583,342.819,534.802,342.276,535.81
C341.462,537.322,339.871,538.119,337.688,538.119
C334.21,538.119,331.5,536.062,331.5,533.416
C331.5,532.45,332.227,531.61,333.063,531.61
C333.951,531.61,334.8,532.449,334.8,533.374
C334.8,533.542,334.727,533.751,334.654,534.045
C334.58,534.423,334.615,534.759,334.615,535.053
C334.615,536.187,335.767,537.119,337.207,537.119
C339.02,537.119,340,535.898,340,533.625V531.063
C334.316,528.46,333.688,528.124,332.101,526.528
C331.287,525.688,330.7,524.26,330.7,522.874
C330.7,520.228,332.357,518.38,334.654,518.38
C336.282,518.38,337.799,519.262,340.056,521.446
C340.241,519.262,340.907,518.38,342.424,518.38
C343.682,518.38,344.459,518.884,345.754,520.48Z
M340,523.966
C340,522.664,339.819,522.286,339.057,521.782
C338.169,521.194,337.133,520.78,336.356,520.78
C335.061,520.78,334,522.224,334,524.05V524.218
C334,526.696,335.519,528.208,340,530.056Z
M351.6,533.206
C353.157,535.138,354.27,535.82,355.716,535.82
C357.566,535.82,358.5,534.319,358.5,531.4V523.084
C358.5,520.228,358.129,519.682,355.975,519.43V518.8H363.819V519.43
C361.821,519.85,361.6,520.186,361.6,523.084V531.442
C361.6,535.852,360.046,538.12,357.048,538.12
C354.861,538.12,353.305,537.112,351.6,534.592V547.36L351.424,547.486
C350.167,546.982,349.241,546.646,347.169,545.974L346.171,545.638V544.966
C346.319,545.008,346.429,545.008,346.615,545.008
C348.205,545.008,348.5,544.672,348.5,542.866V523.084
C348.5,520.144,348.279,519.766,346.134,519.43V518.8H354.125V519.43
C351.979,519.682,351.601,520.186,351.601,523.084Z
M-329.522,206.9H-340.232V206.112
C-338.426,205.986,-337.922,205.86,-337.418,205.524
C-336.788,205.146,-336.5,204.18,-336.5,202.374V195.57
C-336.5,194.226,-339.079,193.113,-342.122,193.113
C-348.968,193.113,-353.2,197.892,-353.2,205.692
C-353.2,209.64,-352.012,213.462,-350.144,215.52
C-348.296,217.578,-345.692,218.688,-342.836,218.688
C-340.484,218.688,-338.426,217.898,-336.788,216.402
C-335.528,215.219,-334.856,214.078,-333.806,211.5H-332.778L-333.114,220.388H-334.1
C-334.352,219.593,-335.108,219.002,-335.99,219.002
C-336.41,219.002,-337.082,219.129,-337.838,219.426
C-339.728,220.056,-341.66,220.388,-343.55,220.388
C-351.95,220.388,-358,214.216,-358,205.65
C-358,201.534,-356.852,198.385,-354.47,195.906
C-351.656,193.009,-347.624,191.413,-343.004,191.413
C-339.371,191.413,-334.09,192.883,-332.4,194.353V202.878
C-332.4,205.356,-331.907,205.902,-329.522,206.112Z
M-311.864,198.888
C-313.88,195.696,-315.686,194.48,-318.374,194.48
C-320.767,194.48,-322.573,195.697,-323.792,198.09
C-324.547,199.705,-324.841,201.107,-324.925,203.7H-311.99
C-312.325,206.396,-312.745,207.599,-313.795,208.926
C-315.055,210.438,-316.987,211.319,-319.171,211.319
C-321.271,211.319,-323.245,210.563,-324.841,209.135
C-326.815,207.414,-327.949,204.432,-327.949,200.988
C-327.949,195.192,-324.925,191.58,-320.095,191.58
C-316.105,191.58,-312.956,194.057,-311.192,198.594Z
M-324.842,205
C-324.38,208.261,-322.952,209.82,-320.39,209.82
C-317.828,209.82,-316.82,208.646,-316.274,205Z
M-286.318,210.9V210.27
C-284.89,209.976,-284.47,209.682,-284.47,208.968
C-284.47,208.338,-284.722,207.33,-285.184,206.196L-288.964,196.872L-292.491,206.28
C-293.205,208.212,-293.205,208.212,-293.205,208.758
C-293.205,209.682,-292.743,209.976,-290.77,210.27V210.9H-299.295V210.27
C-297.741,210.102,-297.238,209.64,-296.397,207.372
C-296.104,206.574,-295.81,205.776,-295.558,205.02L-299.379,196.662L-303.537,207.624
C-303.705,208.044,-303.789,208.464,-303.789,208.884
C-303.789,209.766,-303.285,210.102,-301.857,210.27V210.9H-309.417V210.27
C-308.451,210.186,-308.115,209.766,-307.191,207.624L-301.521,193.26
C-301.018,192,-300.682,191.412,-300.43,191.412
C-300.22,191.412,-299.884,191.958,-299.38,193.05L-294.676,203.13L-290.854,193.218
C-290.266,191.664,-290.098,191.412,-289.846,191.412
C-289.552,191.412,-289.343,191.79,-288.671,193.47L-282.875,208.002
C-282.119,209.766,-281.993,209.976,-281.153,210.27V210.9Z
M-259.882,194.1H-260.092
C-262.024,194.1,-262.5,194.562,-262.5,196.494V210.899H-269.122V210.172
C-266.518,210.047,-266.1,209.629,-266.1,207.54V197.67
C-266.1,196.494,-266.286,195.906,-266.812,195.444
C-267.945,194.52,-269.247,193.98,-270.507,193.98
C-272.145,193.98,-273.499,195.424,-273.499,197.208V210.9H-279.621V210.312
C-277.605,210.186,-277.099,209.556,-277.099,207.624V197.04
C-277.099,193.722,-275.05,191.58,-271.935,191.58
C-270.381,191.58,-268.743,192.252,-267.609,193.386L-265.889,195.192V191.706L-265.635,191.622
C-263.536,192.462,-262.024,192.924,-259.882,193.512Z
M-258.706,208.38
C-258.118,208.506,-257.74,208.564,-257.236,208.564
C-256.186,208.564,-255.8,207.888,-255.8,206.028V195.528
C-255.8,193.428,-256.095,193.134,-258.79,192.63V192H-248.71V192.6
C-251.566,192.727,-252.2,193.363,-252.2,195.78V205.23
C-252.2,206.574,-250.443,208.69,-249.34,208.69
C-249.088,208.69,-248.71,208.475,-248.249,208.044
C-247.577,207.456,-247.115,207.22,-246.569,207.22
C-245.561,207.22,-244.931,207.928,-244.931,209.094
C-244.931,210.48,-245.813,211.32,-247.24,211.32
C-248.976,211.32,-250.175,210.354,-252.2,207.372V211.235L-252.49,211.319
C-254.716,210.396,-256.228,209.849,-258.706,209.052Z
M-226.436,194.772
C-227.15,194.184,-227.654,193.938,-228.284,193.938
C-229.25,193.938,-229.5,194.535,-229.5,196.41V204.6
C-229.5,206.784,-229.72,208.002,-230.383,209.01
C-231.307,210.522,-233.113,211.32,-235.591,211.32
C-239.539,211.32,-242.599,209.262,-242.599,206.616
C-242.599,205.65,-241.781,204.81,-240.841,204.81
C-239.833,204.81,-238.899,205.65,-238.899,206.574
C-238.899,206.742,-238.967,206.952,-239.035,207.246
C-239.119,207.624,-239.109,207.959,-239.109,208.253
C-239.109,209.387,-237.788,210.319,-236.137,210.319
C-234.079,210.319,-232.899,209.098,-232.899,206.825V204.264
C-239.4,201.66,-240.118,201.324,-241.933,199.728
C-242.857,198.888,-243.399,197.46,-243.399,196.074
C-243.399,193.428,-241.57,191.58,-239.035,191.58
C-237.188,191.58,-235.466,192.462,-232.904,194.646
C-232.694,192.462,-231.938,191.58,-230.216,191.58
C-228.788,191.58,-227.906,192.084,-226.436,193.68Z
M-232.9,197.166
C-232.9,195.864,-233.119,195.486,-234.038,194.982
C-235.046,194.394,-236.222,193.98,-237.104,193.98
C-238.574,193.98,-239.7,195.424,-239.7,197.25V197.418
C-239.7,199.896,-237.979,201.408,-232.9,203.256Z
M-219.8,206.406
C-218.038,208.338,-216.78,209.02,-215.144,209.02
C-213.044,209.02,-212,207.519,-212,204.6V196.284
C-212,193.428,-212.419,192.882,-214.85,192.63V192H-205.946V192.63
C-208.214,193.05,-208.4,193.386,-208.4,196.284V204.642
C-208.4,209.052,-210.187,211.32,-213.632,211.32
C-216.108,211.32,-217.87,210.312,-219.8,207.792V220.56L-220.016,220.686
C-221.444,220.182,-222.494,219.846,-224.846,219.174L-225.979,218.838V218.166
C-225.812,218.208,-225.686,218.208,-225.476,218.208
C-223.67,218.208,-223.4,217.872,-223.4,216.066V196.284
C-223.4,193.344,-223.646,192.966,-226.021,192.63V192H-216.95V192.63
C-219.385,192.882,-219.8,193.386,-219.8,196.284Z
M245.04,220.682L244.662,230.188H243.78
C243.528,229.309,242.856,228.802,242.016,228.802
C241.638,228.802,241.008,228.929,240.378,229.184
C238.32,229.855,236.22,230.188,234.246,230.188
C230.802,230.188,227.316,228.887,224.712,226.58
C221.772,223.976,220.2,220.07,220.2,215.45
C220.2,211.544,221.451,207.932,223.578,205.538
C226.098,202.808,229.962,201.212,234.12,201.212
C238.866,201.212,243.024,203.144,245.586,206.546L244.83,207.302
C241.722,204.32,238.95,203.012,235.464,203.012
C232.818,203.012,230.467,203.869,228.66,205.496
C226.351,207.554,225.101,211.334,225.101,215.996
C225.101,223.597,228.987,228.488,235.044,228.488
C237.438,228.488,239.622,227.614,241.302,225.95
C242.646,224.601,243.276,223.421,244.074,220.682Z
M253.6,216.206
C255.362,218.138,256.62,218.82,258.256,218.82
C260.355,218.82,261.399,217.319,261.399,214.4V206.084
C261.399,203.228,260.98,202.682,258.55,202.43V201.8H267.453V202.43
C265.186,202.85,265,203.186,265,206.084V214.442
C265,218.852,263.213,221.12,259.768,221.12
C257.292,221.12,255.53,220.112,253.6,217.592V230.36L253.384,230.486
C251.956,229.982,250.906,229.646,248.554,228.974L247.42,228.638V227.966
C247.588,228.008,247.714,228.008,247.924,228.008
C249.73,228.008,250,227.672,250,225.866V206.084
C250,203.144,249.754,202.766,247.378,202.43V201.8H256.45V202.43
C254.014,202.682,253.6,203.186,253.6,206.084Z
M285.136,208.688
C283.12,205.496,281.314,204.28,278.626,204.28
C276.232,204.28,274.426,205.497,273.208,207.89
C272.452,209.505,272.158,210.906,272.074,213.5H285.01
C284.674,216.195,284.254,217.398,283.204,218.725
C281.945,220.237,280.012,221.119,277.828,221.119
C275.729,221.119,273.754,220.363,272.158,218.935
C270.185,217.213,269.051,214.231,269.051,210.787
C269.051,204.991,272.074,201.379,276.904,201.379
C280.894,201.379,284.044,203.857,285.808,208.393Z
M272.158,214.8
C272.62,218.061,274.048,219.62,276.61,219.62
C279.172,219.62,280.18,218.446,280.726,214.8Z
M299.914,214.988L299.746,220.7H299.3L299.216,220.616
C298.838,220.322,298.796,220.28,298.628,220.28
C298.376,220.28,297.956,220.364,297.494,220.574
C296.571,220.91,295.646,221.078,294.554,221.078
C291.237,221.078,288.801,218.936,288.801,215.912
C288.801,213.56,290.156,211.88,293.756,209.864L296.192,208.478
C297.662,207.638,298.4,206.63,298.4,205.328
C298.4,203.48,297.047,202.28,294.89,202.28
C293.462,202.28,292.16,202.835,291.362,203.774
C290.48,204.824,290.103,205.79,289.556,208.184H288.843V201.632H289.43
C289.724,202.052,289.892,202.136,290.396,202.136
C290.774,202.136,291.362,202.052,292.328,201.8
C293.504,201.548,294.638,201.38,295.394,201.38
C298.628,201.38,301.3,203.816,301.3,206.756
C301.3,208.856,300.297,210.242,297.788,211.754L293.252,214.442
C292.076,215.114,291.4,216.164,291.4,217.298
C291.4,218.978,292.721,220.178,294.68,220.178
C297.074,220.178,298.334,218.743,299.3,214.988Z
M320.136,208.688
C318.12,205.496,316.314,204.28,313.626,204.28
C311.232,204.28,309.426,205.497,308.208,207.89
C307.452,209.505,307.158,210.906,307.074,213.5H320.01
C319.674,216.195,319.254,217.398,318.204,218.725
C316.945,220.237,315.012,221.119,312.828,221.119
C310.729,221.119,308.754,220.363,307.158,218.935
C305.185,217.213,304.051,214.231,304.051,210.787
C304.051,204.991,307.074,201.379,311.904,201.379
C315.894,201.379,319.044,203.857,320.808,208.393Z
M307.158,214.8
C307.62,218.061,309.048,219.62,311.61,219.62
C314.172,219.62,315.18,218.446,315.726,214.8Z
M336.048,201.38L342.222,203.564V204.236
C341.466,204.194,341.382,204.194,341.256,204.194
C339.744,204.194,339.4,204.656,339.4,206.587V230.401L339.198,230.485
C337.182,229.771,335.712,229.352,333.024,228.637V227.966
C333.36,228.008,333.612,228.008,333.948,228.008
C335.502,228.008,335.8,227.588,335.8,225.866V219.314
C334.233,220.658,333.119,221.12,331.47,221.12
C326.64,221.12,322.7,216.374,322.7,210.41
C322.7,205.034,325.864,201.38,330.504,201.38
C332.821,201.38,334.393,202.22,335.8,204.194V201.506Z
M335.8,206.084
C335.8,205.79,335.539,205.286,335.166,204.824
C334.41,203.984,333.36,203.58,332.142,203.58
C328.656,203.58,326.3,206.934,326.3,212.09
C326.3,216.836,328.376,219.92,331.596,219.92
C333.822,219.92,335.8,217.957,335.8,215.744Z
M-62.1,54.6V33.64
C-62.1,30.07,-62.528,29.608,-65.76,29.398V28.6H-54.372V29.4
C-57.57,29.568,-58.1,30.114,-58.1,33.178V54.6H-56.01
C-51.564,54.6,-50.706,53.85,-49.809,49.264H-48.873L-49.107,56.4H-71.103L-71.337,49.264H-70.401
C-69.465,53.842,-68.568,54.6,-64.2,54.6Z
M-41.375,47.92L-47.42,45.61V44.98L-47.108,45.022
C-46.64,45.106,-46.133,45.148,-45.782,45.148
C-44.846,45.148,-44.5,44.476,-44.5,42.628V32.884
C-44.5,29.861,-44.889,29.399,-47.576,29.231V28.601H-38.333V29.231
C-40.907,29.441,-41.2,29.861,-41.2,32.884V47.794Z
M-43.208,57.282
C-44.261,57.282,-45.158,56.318,-45.158,55.144
C-45.158,53.968,-44.3,52.982,-43.208,52.982
C-42.077,52.982,-41.18,53.915,-41.18,55.144
C-41.18,56.32,-42.077,57.282,-43.208,57.282Z
M-36.949,45.106
C-36.598,45.148,-36.325,45.148,-35.974,45.148
C-34.648,45.148,-34.4,44.728,-34.4,42.754V23.098
C-34.4,20.915,-34.825,20.452,-37.105,20.2V19.5H-27.667V20.3
C-30.592,20.341,-31.1,20.795,-31.1,23.392V29.986
C-29.735,28.6,-28.798,28.18,-27.16,28.18
C-22.558,28.18,-18.9,32.884,-18.9,38.974
C-18.9,44.182,-21.659,47.92,-25.483,47.92
C-27.667,47.92,-29.384,46.87,-31.1,44.602V47.836L-31.333,47.92
C-33.439,47.038,-34.804,46.492,-36.949,45.778Z
M-31.1,42.628
C-31.1,43.888,-28.915,45.42,-27.121,45.42
C-24.235,45.42,-22.3,42.22,-22.3,37.336
C-22.3,32.674,-24.221,29.48,-27.043,29.48
C-28.876,29.48,-31.1,31.016,-31.1,32.296Z
M-11.7,43.006
C-10.053,44.938,-8.877,45.62,-7.348,45.62
C-5.398,45.62,-4.4,44.119,-4.4,41.2V32.884
C-4.4,30.028,-4.793,29.482,-7.075,29.23V28.6H1.193V29.23
C-0.913,29.65,-1.1,29.986,-1.1,32.884V41.242
C-1.1,45.652,-2.754,47.92,-5.944,47.92
C-8.254,47.92,-9.899,46.912,-11.7,44.392V57.16L-11.872,57.286
C-13.198,56.782,-14.173,56.446,-16.357,55.774L-17.41,55.438V54.766
C-17.254,54.808,-17.137,54.808,-16.942,54.808
C-15.265,54.808,-15,54.472,-15,52.666V32.884
C-15,29.944,-15.23,29.566,-17.449,29.23V28.6H-9.025V29.23
C-11.287,29.482,-11.7,29.986,-11.7,32.884Z
M17.612,35.488
C15.74,32.296,14.063,31.08,11.567,31.08
C9.344,31.08,7.667,32.297,6.536,34.69
C5.834,36.305,5.561,37.706,5.483,40.3H17.495
C17.183,42.995,16.793,44.198,15.818,45.525
C14.648,47.037,12.854,47.919,10.826,47.919
C8.876,47.919,7.043,47.163,5.562,45.735
C3.729,44.013,2.676,41.032,2.676,37.587
C2.676,31.792,5.483,28.179,9.969,28.179
C13.673,28.179,16.598,30.657,18.236,35.193Z
M5.561,41.6
C5.99,44.861,7.316,46.42,9.695,46.42
C12.074,46.42,13.01,45.246,13.516,41.6Z
M19.273,44.98
C19.819,45.106,20.17,45.164,20.638,45.164
C21.613,45.164,22,44.488,22,42.628V32.128
C22,30.028,21.723,29.734,19.195,29.23V28.6H28.555V29.2
C25.903,29.327,25.3,29.963,25.3,32.38V41.83
C25.3,43.174,26.94,45.29,27.97,45.29
C28.204,45.29,28.555,45.075,28.984,44.644
C29.607,44.056,30.037,43.82,30.544,43.82
C31.479,43.82,32.064,44.528,32.064,45.694
C32.064,47.08,31.246,47.92,29.92,47.92
C28.303,47.92,27.186,46.954,25.3,43.972V47.835L25.045,47.919
C22.978,46.996,21.574,46.45,19.273,45.652Z
M47.912,35.488
C46.04,32.296,44.363,31.08,41.867,31.08
C39.644,31.08,37.967,32.297,36.836,34.69
C36.134,36.305,35.861,37.706,35.783,40.3H47.795
C47.483,42.995,47.093,44.198,46.118,45.525
C44.948,47.037,43.154,47.919,41.126,47.919
C39.176,47.919,37.344,47.163,35.862,45.735
C34.029,44.013,32.976,41.032,32.976,37.587
C32.976,31.792,35.783,28.179,40.269,28.179
C43.973,28.179,46.898,30.657,48.536,35.193Z
M35.861,41.6
C36.29,44.861,37.616,46.42,39.995,46.42
C42.374,46.42,43.31,45.246,43.816,41.6Z
M59.245,47.5H55.3V52.372
C55.3,52.792,55.262,52.918,55.033,52.918
C54.76,52.54,54.526,52.162,54.253,51.742
C52.772,49.432,51.094,47.416,50.47,47.248
C50.042,46.954,49.808,46.66,49.808,46.45
C49.808,46.343,49.846,46.271,49.963,46.2H52V33.514
C52,29.987,53.18,28.18,55.501,28.18
C57.412,28.18,58.894,29.188,60.181,31.372L59.674,31.834
C58.856,30.784,58.192,30.38,57.334,30.38
C55.892,30.38,55.3,31.509,55.3,34.144V46.2H59.245Z
M66.2,43.006
C67.847,44.938,69.023,45.62,70.552,45.62
C72.502,45.62,73.5,44.119,73.5,41.2V32.884
C73.5,30.028,73.107,29.482,70.825,29.23V28.6H79.093V29.23
C76.987,29.65,76.8,29.986,76.8,32.884V41.242
C76.8,45.652,75.146,47.92,71.956,47.92
C69.646,47.92,68.001,46.912,66.2,44.392V57.16L66.028,57.286
C64.702,56.782,63.727,56.446,61.543,55.774L60.49,55.438V54.766
C60.646,54.808,60.763,54.808,60.958,54.808
C62.635,54.808,62.9,54.472,62.9,52.666V32.884
C62.9,29.944,62.67,29.566,60.451,29.23V28.6H68.875V29.23
C66.613,29.482,66.2,29.986,66.2,32.884Z
M-311.2,-109.9V-101.774
C-311.2,-98.75,-310.741,-98.288,-307.526,-97.994V-97.2H-319.202V-97.994
C-315.968,-98.288,-315.5,-98.75,-315.5,-101.774V-119.96
C-315.5,-123.488,-315.921,-123.992,-319.202,-124.202V-125H-307.526V-124.202
C-310.676,-123.95,-311.2,-123.404,-311.2,-120.422V-111.7H-298.5V-119.96
C-298.5,-123.488,-298.92,-123.992,-302.192,-124.202V-125H-290.516V-124.202
C-293.666,-123.95,-294.2,-123.404,-294.2,-120.422V-101.774
C-294.2,-98.75,-293.74,-98.288,-290.516,-97.994V-97.2H-302.192V-97.994
C-298.958,-98.288,-298.5,-98.75,-298.5,-101.774V-109.9Z
M-279.2,-105.68
C-284.66,-105.68,-288.5,-109.712,-288.5,-115.508
C-288.5,-121.178,-284.586,-125.42,-279.284,-125.42
C-273.992,-125.42,-270,-120.968,-270,-115.172
C-270,-109.67,-273.847,-105.68,-279.2,-105.68Z
M-279.746,-106.88
C-276.218,-106.88,-273.8,-110.902,-273.8,-116.642
C-273.8,-121.388,-275.668,-124.22,-278.78,-124.22
C-280.418,-124.22,-281.972,-123.221,-282.854,-121.556
C-284.03,-119.372,-284.7,-116.432,-284.7,-113.45
C-284.7,-109.46,-282.727,-106.88,-279.746,-106.88Z
M-254.252,-125.42L-248.078,-123.236V-122.564
C-248.834,-122.606,-248.918,-122.606,-249.044,-122.606
C-250.556,-122.606,-250.9,-122.144,-250.9,-120.212V-96.398L-251.102,-96.314
C-253.118,-97.028,-254.588,-97.448,-257.276,-98.162V-98.834
C-256.94,-98.792,-256.688,-98.792,-256.352,-98.792
C-254.798,-98.792,-254.5,-99.212,-254.5,-100.934V-107.486
C-256.067,-106.142,-257.181,-105.68,-258.83,-105.68
C-263.66,-105.68,-267.6,-110.426,-267.6,-116.39
C-267.6,-121.766,-264.436,-125.42,-259.796,-125.42
C-257.479,-125.42,-255.907,-124.58,-254.5,-122.606V-125.294Z
M-254.5,-120.716
C-254.5,-121.01,-254.761,-121.514,-255.134,-121.976
C-255.889,-122.815,-256.939,-123.219,-258.157,-123.219
C-261.643,-123.219,-263.999,-119.866,-263.999,-114.71
C-263.999,-109.964,-261.923,-106.88,-258.703,-106.88
C-256.478,-106.88,-254.5,-108.843,-254.5,-111.056Z
M250.7,-125.462V-103.37
C250.7,-100.85,251.121,-99.296,251.922,-98.75
C252.51,-98.33,253.098,-98.162,254.694,-97.994V-97.2H244.824V-97.994
C246.42,-98.12,247.008,-98.288,247.638,-98.666
C248.478,-99.254,248.9,-100.766,248.9,-103.37V-117.524L232.686,-97.2H225.504V-98
C227.32,-98,227.911,-98.335,229.6,-100.304V-118.826
C229.6,-123.152,229.009,-123.949,225.504,-124.202V-125H235.374V-124.2
C232.14,-124.032,231.4,-123.066,231.4,-118.826V-102.362L249.99,-125.462Z
M272.436,-118.112
C270.42,-121.304,268.614,-122.52,265.926,-122.52
C263.532,-122.52,261.726,-121.303,260.508,-118.91
C259.752,-117.295,259.458,-115.893,259.374,-113.3H272.31
C271.974,-110.604,271.554,-109.401,270.504,-108.074
C269.244,-106.562,267.312,-105.68,265.128,-105.68
C263.028,-105.68,261.054,-106.436,259.458,-107.864
C257.484,-109.586,256.35,-112.568,256.35,-116.012
C256.35,-121.808,259.374,-125.42,264.204,-125.42
C268.194,-125.42,271.344,-122.942,273.108,-118.406Z
M259.458,-112
C259.92,-108.739,261.348,-107.18,263.91,-107.18
C266.471,-107.18,267.479,-108.354,268.026,-112Z
M291.556,-119.33L290.8,-119.162
C290.38,-121.262,290.128,-121.934,289.582,-122.648
C288.994,-123.362,287.566,-123.699,285.424,-123.699H279.628L290.926,-106.729V-106.1H276.352L276.226,-111.055H276.982
C277.36,-107.99,277.99,-107.4,280.51,-107.4H286.306L275.134,-124.37V-125H290.968Z
M311.164,-122.228
C310.45,-122.816,309.946,-123.062,309.316,-123.062
C308.35,-123.062,308.1,-122.465,308.1,-120.59V-112.4
C308.1,-110.216,307.879,-108.998,307.216,-107.99
C306.292,-106.478,304.486,-105.68,302.009,-105.68
C298.061,-105.68,295.001,-107.738,295.001,-110.384
C295.001,-111.35,295.819,-112.19,296.759,-112.19
C297.766,-112.19,298.7,-111.35,298.7,-110.426
C298.7,-110.258,298.633,-110.048,298.564,-109.754
C298.48,-109.376,298.49,-109.04,298.49,-108.746
C298.49,-107.613,299.811,-106.68,301.462,-106.68
C303.52,-106.68,304.7,-107.901,304.7,-110.174V-112.736
C298.199,-115.34,297.481,-115.676,295.666,-117.272
C294.742,-118.112,294.2,-119.54,294.2,-120.926
C294.2,-123.572,296.029,-125.42,298.564,-125.42
C300.412,-125.42,302.134,-124.538,304.696,-122.354
C304.906,-124.538,305.662,-125.42,307.384,-125.42
C308.812,-125.42,309.694,-124.916,311.164,-123.32Z
M304.7,-119.834
C304.7,-121.136,304.481,-121.514,303.562,-122.018
C302.554,-122.606,301.378,-123.02,300.496,-123.02
C299.026,-123.02,297.9,-121.576,297.9,-119.75V-119.582
C297.9,-117.104,299.621,-115.592,304.7,-113.744Z
M328.016,-118.448
C326,-121.388,324.488,-122.42,322.094,-122.42
C318.272,-122.42,315.6,-119.05,315.6,-114.206
C315.6,-109.88,317.903,-106.98,321.296,-106.98
C322.808,-106.98,323.354,-107.423,323.774,-108.914L324.026,-109.838
C324.362,-111.013,325.117,-111.77,326,-111.77
C327.091,-111.77,328.015,-110.972,328.015,-110.006
C328.015,-107.654,325.075,-105.68,321.548,-105.68
C319.49,-105.68,317.348,-106.52,315.626,-108.031
C313.526,-109.879,312.4,-112.735,312.4,-116.053
C312.4,-121.513,315.697,-125.419,320.33,-125.419
C322.22,-125.419,323.9,-124.748,325.412,-123.446
C326.545,-122.438,327.344,-121.304,328.604,-118.826Z
M336.5,-110.594
C338.262,-108.662,339.52,-107.98,341.156,-107.98
C343.255,-107.98,344.299,-109.481,344.299,-112.4V-120.716
C344.299,-123.572,343.88,-124.118,341.449,-124.37V-125H350.353V-124.37
C348.085,-123.95,347.899,-123.614,347.899,-120.716V-112.358
C347.899,-107.948,346.113,-105.68,342.667,-105.68
C340.192,-105.68,338.43,-106.688,336.5,-109.208V-96.44L336.284,-96.314
C334.856,-96.818,333.806,-97.154,331.454,-97.826L330.32,-98.162V-98.834
C330.488,-98.792,330.614,-98.792,330.824,-98.792
C332.63,-98.792,332.9,-99.128,332.9,-100.934V-120.716
C332.9,-123.656,332.654,-124.033,330.278,-124.369V-124.999H339.35V-124.369
C336.914,-124.117,336.5,-123.614,336.5,-120.716Z
M-36.3,-265.074
C-36.3,-262.008,-35.841,-261.546,-32.46,-261.294V-260.5H-44.514V-261.294
C-41.07,-261.546,-40.6,-262.008,-40.6,-265.074V-284.52
C-40.6,-286.41,-41.107,-287.288,-42.204,-287.288
C-42.792,-287.288,-43.044,-286.953,-43.338,-285.906
C-43.758,-284.436,-44.429,-283.764,-45.522,-283.764
C-46.655,-283.764,-47.579,-284.73,-47.579,-285.864
C-47.579,-287.628,-45.857,-288.888,-43.421,-288.888
C-38.886,-288.888,-36.3,-285.864,-36.3,-280.614Z
M-14.564,-281.412
C-16.58,-284.604,-18.386,-285.82,-21.074,-285.82
C-23.468,-285.82,-25.274,-284.603,-26.492,-282.21
C-27.248,-280.595,-27.542,-279.193,-27.626,-276.6H-14.69
C-15.026,-273.904,-15.446,-272.701,-16.496,-271.374
C-17.755,-269.862,-19.688,-268.98,-21.872,-268.98
C-23.971,-268.98,-25.946,-269.736,-27.542,-271.164
C-29.515,-272.886,-30.649,-275.868,-30.649,-279.312
C-30.649,-285.108,-27.626,-288.72,-22.796,-288.72
C-18.806,-288.72,-15.656,-286.242,-13.892,-281.706Z
M-27.542,-275.3
C-27.08,-272.039,-25.652,-270.48,-23.09,-270.48
C-20.528,-270.48,-19.52,-271.654,-18.974,-275.3Z
M0.214,-275.112L0.046,-269.4H-0.4L-0.484,-269.484
C-0.862,-269.778,-0.904,-269.82,-1.072,-269.82
C-1.324,-269.82,-1.744,-269.736,-2.206,-269.526
C-3.129,-269.19,-4.053,-269.022,-5.146,-269.022
C-8.463,-269.022,-10.899,-271.164,-10.899,-274.188
C-10.899,-276.54,-9.544,-278.22,-5.944,-280.236L-3.508,-281.622
C-2.038,-282.461,-1.3,-283.469,-1.3,-284.771
C-1.3,-286.619,-2.653,-287.819,-4.81,-287.819
C-6.238,-287.819,-7.54,-287.264,-8.338,-286.325
C-9.219,-285.276,-9.597,-284.31,-10.144,-281.916H-10.857V-288.467H-10.27
C-9.976,-288.047,-9.808,-287.963,-9.304,-287.963
C-8.926,-287.963,-8.338,-288.047,-7.372,-288.299
C-6.196,-288.551,-5.062,-288.719,-4.306,-288.719
C-1.072,-288.719,1.6,-286.283,1.6,-283.343
C1.6,-281.243,0.597,-279.857,-1.912,-278.345L-6.448,-275.657
C-7.624,-274.986,-8.3,-273.936,-8.3,-272.802
C-8.3,-271.122,-6.979,-269.922,-5.02,-269.922
C-2.626,-269.922,-1.366,-271.356,-0.4,-275.112Z
M13.8,-268.98
C8.34,-268.98,4.5,-273.012,4.5,-278.808
C4.5,-284.478,8.414,-288.72,13.716,-288.72
C19.008,-288.72,23,-284.268,23,-278.472
C23,-272.97,19.153,-268.98,13.8,-268.98Z
M13.254,-270.18
C16.782,-270.18,19.2,-274.202,19.2,-279.942
C19.2,-284.688,17.332,-287.52,14.22,-287.52
C12.582,-287.52,11.028,-286.521,10.146,-284.856
C8.97,-282.672,8.3,-279.732,8.3,-276.75
C8.3,-272.76,10.273,-270.18,13.254,-270.18Z
M38.748,-288.72L44.922,-286.536V-285.864
C44.166,-285.906,44.082,-285.906,43.956,-285.906
C42.444,-285.906,42.1,-285.444,42.1,-283.512V-259.698L41.898,-259.615
C39.882,-260.328,38.412,-260.748,35.724,-261.462V-262.134
C36.06,-262.092,36.312,-262.092,36.648,-262.092
C38.202,-262.092,38.5,-262.512,38.5,-264.234V-270.786
C36.933,-269.442,35.819,-268.98,34.17,-268.98
C29.34,-268.98,25.4,-273.726,25.4,-279.69
C25.4,-285.066,28.564,-288.72,33.204,-288.72
C35.521,-288.72,37.093,-287.88,38.5,-285.906V-288.594Z
M38.5,-284.016
C38.5,-284.31,38.239,-284.814,37.866,-285.276
C37.11,-286.115,36.06,-286.52,34.842,-286.52
C31.356,-286.52,29,-283.166,29,-278.01
C29,-273.264,31.076,-270.18,34.296,-270.18
C36.522,-270.18,38.5,-272.143,38.5,-274.356Z
M-42.9,-595.734V-614.76
C-42.9,-618.246,-43.354,-618.792,-46.346,-619.002V-619.8H-35.706V-619.002
C-38.48,-618.792,-39,-618.204,-39,-615.222V-596.574
C-39,-593.592,-38.508,-593.046,-35.706,-592.794V-592H-43.268L-51.666,-613.206L-60.443,-592H-67.967V-592.794
C-64.851,-593.004,-64.399,-593.508,-64.399,-596.574V-613.626
C-64.399,-617.952,-64.925,-618.75,-68.043,-619.002V-619.8H-59.113V-619
C-62.039,-618.832,-62.699,-617.866,-62.699,-613.626V-596.7L-53.148,-619.8H-52.616Z
M-17.904,-617.028
C-18.55,-617.616,-19.006,-617.862,-19.576,-617.862
C-20.45,-617.862,-20.7,-617.265,-20.7,-615.39V-607.2
C-20.7,-605.016,-20.893,-603.798,-21.475,-602.79
C-22.311,-601.278,-23.945,-600.48,-26.187,-600.48
C-29.759,-600.48,-32.499,-602.538,-32.499,-605.184
C-32.499,-606.15,-31.772,-606.99,-30.937,-606.99
C-30.025,-606.99,-29.2,-606.15,-29.2,-605.226
C-29.2,-605.058,-29.251,-604.848,-29.303,-604.554
C-29.379,-604.176,-29.389,-603.84,-29.389,-603.546
C-29.389,-602.413,-28.185,-601.48,-26.681,-601.48
C-24.82,-601.48,-23.8,-602.701,-23.8,-604.974V-607.536
C-29.648,-610.14,-30.292,-610.476,-31.926,-612.072
C-32.762,-612.912,-33.299,-614.34,-33.299,-615.726
C-33.299,-618.372,-31.624,-620.22,-29.304,-620.22
C-27.632,-620.22,-26.074,-619.338,-23.756,-617.154
C-23.566,-619.338,-22.882,-620.22,-21.324,-620.22
C-20.032,-620.22,-19.234,-619.716,-17.904,-618.12Z
M-23.8,-614.634
C-23.8,-615.936,-23.989,-616.314,-24.782,-616.818
C-25.694,-617.406,-26.758,-617.82,-27.556,-617.82
C-28.886,-617.82,-30,-616.376,-30,-614.55V-614.382
C-30,-611.904,-28.431,-610.392,-23.8,-608.544Z
M-17.078,-593.634H-16.85
C-16.432,-593.592,-15.976,-593.55,-15.672,-593.55
C-14.456,-593.55,-14.1,-594.138,-14.1,-596.112V-616.146
C-14.1,-618.413,-14.628,-618.959,-17.002,-619.169V-619.799H-8.034V-619.169
C-10.428,-619.001,-10.9,-618.582,-10.9,-616.271V-591.198L-11.036,-591.114
C-13.012,-591.827,-14.456,-592.247,-17.078,-592.961Z
M7.824,-613.248
C6,-616.188,4.632,-617.22,2.466,-617.22
C-0.992,-617.22,-3.4,-613.85,-3.4,-609.006
C-3.4,-604.68,-1.32,-601.68,1.744,-601.68
C3.112,-601.68,3.606,-602.146,3.986,-603.714L4.214,-604.638
C4.518,-605.813,5.201,-606.57,6,-606.57
C6.987,-606.57,7.823,-605.772,7.823,-604.806
C7.823,-602.454,5.164,-600.48,1.972,-600.48
C0.11,-600.48,-1.828,-601.32,-3.386,-602.832
C-5.286,-604.679,-6.3,-607.535,-6.3,-610.854
C-6.3,-616.313,-3.319,-620.219,0.87,-620.219
C2.58,-620.219,4.1,-619.548,5.468,-618.246
C6.494,-617.238,7.216,-616.104,8.356,-613.626Z
M15.6,-605.394
C17.183,-603.462,18.314,-602.78,19.784,-602.78
C21.684,-602.78,22.6,-604.281,22.6,-607.2V-615.516
C22.6,-618.372,22.225,-618.918,20.05,-619.17V-619.8H28.106V-619.17
C26.054,-618.75,25.8,-618.414,25.8,-615.516V-607.158
C25.8,-602.748,24.213,-600.48,21.152,-600.48
C18.924,-600.48,17.337,-601.488,15.6,-604.008V-591.24L15.376,-591.114
C14.084,-591.618,13.134,-591.954,11.006,-592.626L9.98,-592.962V-593.634
C10.132,-593.592,10.246,-593.592,10.436,-593.592
C12.07,-593.592,12.4,-593.928,12.4,-595.734V-615.516
C12.4,-618.456,12.17,-618.833,9.942,-619.169V-619.799H18.15V-619.169
C15.946,-618.917,15.6,-618.414,15.6,-615.516Z
M46.802,-617.7H46.612
C44.864,-617.7,44.4,-617.238,44.4,-615.306V-600.9H38.442V-601.628
C40.798,-601.753,41.2,-602.171,41.2,-604.26V-614.13
C41.2,-615.306,41.024,-615.894,40.532,-616.356
C39.506,-617.28,38.328,-617.82,37.188,-617.82
C35.706,-617.82,34.5,-616.376,34.5,-614.592V-600.9H28.942V-601.488
C30.766,-601.614,31.3,-602.244,31.3,-604.176V-614.76
C31.3,-618.078,33.123,-620.22,35.896,-620.22
C37.302,-620.22,38.784,-619.548,39.81,-618.414L41.39,-616.608V-620.094L41.596,-620.178
C43.495,-619.338,44.863,-618.876,46.801,-618.288Z
M57.29,-600.9H53.5V-596.028
C53.5,-595.608,53.455,-595.482,53.186,-595.482
C52.92,-595.86,52.692,-596.238,52.426,-596.658
C50.982,-598.968,49.348,-600.984,48.74,-601.152
C48.322,-601.446,48.094,-601.74,48.094,-601.95
C48.094,-602.057,48.132,-602.129,48.246,-602.199H50.3V-614.885
C50.3,-618.413,51.426,-620.219,53.642,-620.219
C55.504,-620.219,56.948,-619.211,58.202,-617.027L57.708,-616.565
C56.91,-617.615,56.264,-618.019,55.428,-618.019
C54.022,-618.019,53.5,-616.89,53.5,-614.255V-602.199H57.29Z
M64.2,-605.394
C65.783,-603.462,66.914,-602.78,68.384,-602.78
C70.284,-602.78,71.2,-604.281,71.2,-607.2V-615.516
C71.2,-618.372,70.825,-618.918,68.65,-619.17V-619.8H76.706V-619.17
C74.654,-618.75,74.4,-618.414,74.4,-615.516V-607.158
C74.4,-602.748,72.813,-600.48,69.752,-600.48
C67.524,-600.48,65.937,-601.488,64.2,-604.008V-591.24L63.976,-591.114
C62.684,-591.618,61.734,-591.954,59.606,-592.626L58.581,-592.962V-593.634
C58.732,-593.592,58.846,-593.592,59.036,-593.592
C60.67,-593.592,61,-593.928,61,-595.734V-615.516
C61,-618.456,60.77,-618.833,58.542,-619.169V-619.799H66.75V-619.169
C64.546,-618.917,64.2,-618.414,64.2,-615.516Z"/>
<!-- Hebrew text -->
<path d="M-60.5,813.68
C-60.5,819.6,-65.28,819.3,-65.28,819.3H-85.76
C-92.159,819.3,-89.599,822.64,-89.599,822.64
C-94.719,819.92,-95.679,811.28,-87.84,810
C-88.8,809.52,-92.8,806.48,-92.8,803.92
C-92.8,801.84,-92.8,801.04,-92.8,798.96
C-92.8,796.4,-91.84,794.18,-87.36,794.18
C-78.88,794.18,-79.36,803.3,-86.88,803.3
C-87.679,803.3,-87.52,803.932,-86.72,804.88
C-85.12,807.12,-83.84,808.72,-81.28,810H-68.96
C-68.96,810,-65.1,810.48,-65.1,805.52V766.8
C-65.1,761.84,-60.5,765.52,-60.5,766.8Z
M-42.1,813.68
C-42.1,819.6,-47,819.3,-47,819.3H-47.96
C-54.36,819.3,-51.96,822.32,-51.96,822.32
C-57.399,819.6,-57.719,810,-50.68,810
C-50.68,810,-46.7,810.48,-46.7,805.52V780.56
C-46.7,775.44,-42.1,779.28,-42.1,780.56Z
M-36.2,800.4V794
C-36.2,779.76,-26.44,778,-24.04,778H-16.04
C-13.64,778,-3.9,779.76,-3.9,794V808.08
C-3.9,819.6,-18.28,819.3,-18.28,819.3H-29
C-35.4,819.3,-33,822.64,-33,822.64
C-38.44,819.76,-39.08,809.04,-29,810
C-29,810,-36.2,804.72,-36.2,800.4Z
M-31.6,794V800.4
C-31.6,804.88,-24.36,810,-24.36,810H-15.32
C-15.32,810,-8.5,810.479,-8.5,799.28V797.2
C-8.5,787.44,-17.16,787.28,-17.16,787.28H-24.52
C-24.52,787.28,-31.6,787.6,-31.6,794Z
M30.02,808.56
C30.02,806.64,25.7,803.12,25.7,798.96V766.8
C25.7,761.84,30.3,765.52,30.3,766.8V800.24
C30.3,802.64,34.66,806.16,34.66,808.88V813.68
C34.66,819.6,29.7,819.3,29.7,819.3H28.74
C22.34,819.3,24.74,822.319,24.74,822.319
C19.3,819.599,18.82,810.179,25.86,810.179
C26.98,810.179,30.02,811.919,30.02,808.56Z
M46.38,803.76
C42.86,799.76,48.3,800.08,49.74,801.84
C51.66,803.92,54.06,806.32,54.06,808.88V813.679
C54.06,819.599,49.1,819.299,49.1,819.299H48.14
C41.74,819.299,44.14,822.319,44.14,822.319
C38.7,819.599,38.38,809.999,45.42,809.999
C45.42,809.999,52.3,811.119,49.419,807.599
C49.419,807.599,47.5,805.199,46.38,803.76Z
M62.94,822.32
C53.98,811.92,64.54,806.48,67.1,803.6
C65.82,799.28,59.9,798.32,59.9,793.52V787.44
C59.9,783.76,62.3,784.88,62.3,782.96
C62.3,780.88,57.02,778,61.82,778
C65.02,778,66.78,778,69.82,778
C76.22,778,75.099,782.32,72.54,786
C70.14,788.72,66.62,790.64,66.62,793.52
C66.62,797.52,68.86,797.84,70.619,799.44
C89.819,781.84,84.539,786.48,89.019,778
C96.699,788.08,88.859,794.16,82.779,800.08
C84.059,803.119,85.179,802.959,87.099,804.879
C89.019,803.439,87.899,800.719,89.179,800.719
C93.339,800.719,92.699,806.959,92.379,811.119
C91.739,816.559,86.939,816.719,84.059,822.319
C78.459,815.119,82.619,809.04,83.419,808.56
C82.299,806.16,81.979,805.04,79.579,803.6
C65.659,814.8,65.179,817.359,62.94,822.32Z
M-24.3,650.08
C-24.3,661.6,-38.68,661.3,-38.68,661.3H-49.56
C-55.96,661.3,-53.399,664.64,-53.399,664.64
C-58.999,661.76,-59.479,652,-49.56,652H-35.72
C-35.72,652,-28.9,652.48,-28.9,641.28V622.4
C-28.9,617.6,-24.3,621.28,-24.3,622.4Z
M-5.48,625.92V628.64
C-5.48,631.2,-10.04,637.44,-10.04,641.84
C-10.04,644.08,-6.2,652.1,-2.2,652.1H9
C9,652.1,15,652.56,15,645.12V622.48
C15,617.52,19.6,621.2,19.6,622.48V652.72
C19.6,661.6,12.44,661.3,12.44,661.3H-7.48
C-13.88,661.3,-11.32,664.639,-11.32,664.639
C-16.92,661.76,-17.4,652,-7.96,652
C-12.36,652,-14.92,643.2,-14.92,641.36
C-14.92,638.16,-10.12,632.96,-10.12,631.36
C-10.12,629.12,-11.56,629.28,-11.56,629.28
C-17.16,629.28,-17.32,620,-11.56,620H-9.96
C-9.96,620,-5.48,620.16,-5.48,625.76Z
M28.24,629.28L24.8,620H43.6
C43.6,620,58.3,620.16,58.3,640.8V650.08
C58.3,661.599,43.92,661.3,43.92,661.3H33.04
C26.64,661.3,29.2,664.639,29.2,664.639
C23.6,661.76,23.12,652,33.04,652H46.88
C46.88,652,52.64,652.479,52.64,641.28V637.44
C52.64,629.44,43.68,629.28,43.68,629.28Z
M-336.3,459.16
C-336.3,454.2,-331.7,457.88,-331.7,459.16V475.32
C-331.7,480.28,-336.3,476.6,-336.3,475.32Z
M-317,488.6
C-316.84,488.6,-313.1,489.08,-313.1,484.44V459.16
C-313.1,454.2,-308.5,457.88,-308.5,459.16
C-308.52,459.16,-308.5,474.68,-308.5,484.44
C-308.5,489.08,-305.48,489.4,-305.48,493.4
C-305.48,495.64,-306.6,497.9,-308.68,497.9H-331.56
C-337.96,497.9,-335.4,501.24,-335.4,501.24
C-341,498.36,-341.48,488.6,-332.04,488.6Z
M-299.36,465.88L-302.8,456.6H-292.8
C-292.8,456.6,-284.5,456.76,-284.5,465.88V492.28
C-284.5,498.2,-289.28,497.9,-289.28,497.9H-290.08
C-296.48,497.9,-294.08,500.919,-294.08,500.919
C-299.52,498.199,-300,488.6,-293.12,488.6
C-293.12,488.6,-289.1,489.08,-289.1,484.12V469.88
C-289.1,466.04,-292.8,465.88,-292.8,465.88Z
M-270.72,482.36
C-274.24,478.36,-268.8,478.68,-267.36,480.44
C-265.44,482.52,-263.04,484.92,-263.04,487.48V492.28
C-263.04,498.199,-268,497.899,-268,497.899H-268.96
C-275.36,497.899,-272.96,500.919,-272.96,500.919
C-278.4,498.199,-278.72,488.599,-271.68,488.599
C-271.68,488.599,-264.8,489.719,-267.68,486.199
C-267.68,486.199,-269.6,483.8,-270.72,482.36Z
M-254.24,465.88L-257.68,456.6H-226.32L-222.88,465.88H-225.52
C-225.52,465.88,-227.1,465.88,-227.1,468.28V492.28
C-227.1,498.199,-232.08,497.899,-232.08,497.899H-249.839
C-256.239,497.899,-253.679,501.239,-253.679,501.239
C-259.279,498.359,-259.759,488.599,-249.839,488.599H-235.76
C-235.76,488.599,-231.7,489.079,-231.7,484.119V469.879
C-231.7,466.04,-235.44,465.88,-235.44,465.88Z
M210.7,459.16
C210.7,454.2,215.3,457.88,215.3,459.16V475.32
C215.3,480.28,210.7,476.6,210.7,475.32Z
M230,488.6
C230.16,488.6,233.9,489.08,233.9,484.44V459.16
C233.9,454.2,238.5,457.88,238.5,459.16
C238.48,459.16,238.5,474.68,238.5,484.44
C238.5,489.08,241.519,489.4,241.519,493.4
C241.519,495.64,240.399,497.9,238.319,497.9H215.439
C209.04,497.9,211.6,501.24,211.6,501.24
C206,498.36,205.52,488.6,214.959,488.6Z
M268.42,497.9H266.02
C260.1,497.9,263.78,496.62,262.66,491.98H260.26
C260.26,497.88,257.54,497.9,257.54,497.9H256.74
C250.341,497.9,252.741,500.92,252.741,500.92
C247.301,498.2,246.341,488.78,253.861,488.78
C258.66,488.78,248.901,485.092,248.901,479V459.16
C248.901,454.2,253.5,457.88,253.5,459.16V478.36
C253.5,480.12,260.086,488.6,263.62,488.6H265.54
C269.38,488.6,276.6,481.08,276.6,473.72V469.88
C276.6,466.041,272.9,465.881,272.9,465.881H260.9L257.46,456.601H273.06
C273.06,456.601,281.2,456.761,281.2,465.881V476.92
C281.2,486.04,270.177,497.9,268.42,497.9Z
M288.74,465.88L285.3,456.6H304.1
C304.1,456.6,318.8,456.76,318.8,477.4V486.68
C318.8,498.199,304.42,497.9,304.42,497.9H293.54
C287.14,497.9,289.7,501.24,289.7,501.24
C284.1,498.36,283.62,488.6,293.54,488.6H307.38
C307.38,488.6,313.139,489.08,313.139,477.88V474.04
C313.139,466.04,304.179,465.88,304.179,465.88Z
M327.8,484.6V459.16
C327.8,454.2,332.4,457.88,332.4,459.16V484.6
C332.4,489.08,337.82,488.6,337.82,488.6H347.099
C347.259,488.6,350.999,489.08,350.999,484.44V459.16
C350.999,454.2,355.599,457.88,355.599,459.16V484.6
C359.279,489.24,363.419,497.9,350.779,497.9H332.539
C326.139,497.9,328.699,501.24,328.699,501.24
C323.1,498.36,322.62,488.6,332.059,488.6
C330.459,488.6,327.8,486.84,327.8,484.6Z
M-356.8,132.36
C-356.8,127.4,-352.2,131.08,-352.2,132.36V148.52
C-352.2,153.48,-356.8,149.8,-356.8,148.52Z
M-337.5,161.8
C-337.34,161.8,-333.6,162.28,-333.6,157.64V132.36
C-333.6,127.4,-329,131.08,-329,132.36
C-329.02,132.36,-329,147.88,-329,157.64
C-329,162.28,-325.98,162.6,-325.98,166.6
C-325.98,168.84,-327.1,171.1,-329.18,171.1H-352.06
C-358.46,171.1,-355.9,174.439,-355.9,174.439
C-361.5,171.56,-361.98,161.8,-352.54,161.8Z
M-288.8,159.88
C-288.8,171.4,-303.18,171.1,-303.18,171.1H-314.06
C-320.459,171.1,-317.899,174.44,-317.899,174.44
C-323.499,171.56,-323.979,161.8,-314.06,161.8H-300.22
C-300.22,161.8,-293.4,162.28,-293.4,151.08V132.2
C-293.4,127.4,-288.8,131.08,-288.8,132.2Z
M-270.3,165.48
C-270.3,171.4,-275.2,171.1,-275.2,171.1H-276.16
C-282.56,171.1,-280.159,174.12,-280.159,174.12
C-285.599,171.4,-285.919,161.8,-278.88,161.8
C-278.88,161.8,-274.9,162.28,-274.9,157.32V132.36
C-274.9,127.24,-270.3,131.08,-270.3,132.36Z
M-262.24,139.08L-265.68,129.8H-234.32L-230.88,139.08H-233.52
C-233.52,139.08,-235.1,139.08,-235.1,141.48V165.479
C-235.1,171.399,-240.08,171.099,-240.08,171.099H-257.839
C-264.239,171.099,-261.679,174.439,-261.679,174.439
C-267.279,171.559,-267.759,161.799,-257.839,161.799H-243.76
C-243.76,161.799,-239.7,162.279,-239.7,157.319V143.079
C-239.7,139.24,-243.44,139.08,-243.44,139.08Z
M-212,145.16V165.48
C-212,171.4,-216.8,171.1,-216.8,171.1H-217.439
C-223.999,171.1,-221.439,174.119,-221.439,174.119
C-227.039,171.399,-227.519,161.8,-220.479,161.8
C-220.479,161.8,-216.599,162.28,-216.599,157.32V145
C-216.599,139.08,-220.959,139.08,-220.959,139.08H-222.559
C-228.159,139.08,-228.319,129.8,-222.559,129.8H-221.919
C-219.199,129.8,-216.959,133,-215.039,136.2
C-213.439,134.76,-212.319,132.52,-211.839,131.72
C-209.28,127.56,-205.28,130.92,-207.359,134.28
C-209.279,137.48,-211.839,138.28,-211.999,145.16Z
M251.2,171.1H233.44
C227.04,171.1,229.6,174.44,229.6,174.44
C224,171.56,223.521,161.8,233.44,161.8H247.52
C253.28,161.8,249.3,159.88,249.3,156.2V132.36
C249.3,127.24,253.9,131.08,253.9,132.36V155.4
C253.9,160.2,263.36,171.1,251.2,171.1Z
M264,152.2V145.8
C264,131.56,273.76,129.8,276.16,129.8H284.159
C286.559,129.8,296.299,131.56,296.299,145.8V159.88
C296.299,171.4,281.919,171.1,281.919,171.1H271.199
C264.8,171.1,267.2,174.44,267.2,174.44
C261.76,171.56,261.12,160.84,271.199,161.8
C271.199,161.8,264,156.52,264,152.2Z
M268.6,145.8V152.2
C268.6,156.68,275.84,161.8,275.84,161.8H284.88
C284.88,161.8,291.699,162.28,291.699,151.08V149
C291.699,139.24,283.04,139.08,283.04,139.08H275.68
C275.68,139.08,268.6,139.4,268.6,145.8Z
M303.3,157.8V132.36
C303.3,127.4,307.9,131.08,307.9,132.36V157.8
C307.9,162.28,313.32,161.8,313.32,161.8H322.599
C322.759,161.8,326.499,162.28,326.499,157.64V132.36
C326.499,127.4,331.099,131.08,331.099,132.36V157.8
C334.779,162.44,338.919,171.1,326.279,171.1H308.039
C301.639,171.1,304.199,174.439,304.199,174.439
C298.6,171.56,298.12,161.8,307.559,161.8
C305.959,161.8,303.3,160.04,303.3,157.8Z
M-77.632,-27.68V-24.96
C-77.632,-22.4,-81.736,-16.16,-81.736,-11.76
C-81.736,-9.52,-78.28,-1.5,-74.68,-1.5H-64.6
C-64.6,-1.5,-59.2,-1.04,-59.2,-8.48V-31.12
C-59.2,-36.08,-55,-32.4,-55,-31.12V-0.88
C-55,8,-61.504,7.7,-61.504,7.7H-79.432
C-85.192,7.7,-82.888,11.04,-82.888,11.04
C-87.928,8.16,-88.36,-1.6,-79.864,-1.6
C-83.824,-1.6,-86.128,-10.4,-86.128,-12.24
C-86.128,-15.44,-81.808,-20.64,-81.808,-22.24
C-81.808,-24.48,-83.104,-24.32,-83.104,-24.32
C-88.144,-24.32,-88.288,-33.6,-83.104,-33.6H-81.664
C-81.664,-33.6,-77.632,-33.44,-77.632,-27.84Z
M-21.1,-3.52
C-21.1,8,-34.112,7.7,-34.112,7.7H-43.904
C-49.664,7.7,-47.36,11.04,-47.36,11.04
C-52.399,8.16,-52.832,-1.6,-43.904,-1.6H-31.448
C-31.448,-1.6,-25.3,-1.12,-25.3,-12.32V-31.2
C-25.3,-36,-21.1,-32.32,-21.1,-31.2Z
M-13.104,10.72
C-21.168,0.32,-11.664,-5.12,-9.36,-8
C-10.512,-12.32,-15.8,-13.28,-15.8,-18.08V-24.16
C-15.8,-27.84,-13.64,-26.72,-13.64,-28.64
C-13.64,-30.72,-18.432,-33.6,-14.112,-33.6
C-11.232,-33.6,-9.648,-33.6,-6.912,-33.6
C-1.152,-33.6,-2.16,-29.28,-4.464,-25.6
C-6.624,-22.88,-9.732,-20.96,-9.732,-18.08
C-9.732,-14.08,-7.75,-13.76,-6.192,-12.16
C11.088,-29.76,6.336,-25.12,10.368,-33.6
C17.28,-23.52,10.224,-17.44,4.752,-11.52
C5.904,-8.48,6.912,-8.64,8.64,-6.72
C10.368,-8.16,9.36,-10.88,10.512,-10.88
C14.256,-10.88,13.68,-4.64,13.392,-0.48
C12.816,4.959,8.496,5.119,5.904,10.72
C0.864,3.52,4.608,-2.56,5.328,-3.04
C4.32,-5.44,4.032,-6.56,1.872,-8
C-10.656,3.2,-11.088,5.76,-13.104,10.72Z
M19.26,-7.68V-12.8
C19.26,-15.36,20.124,-17.6,24.156,-17.6
C31.788,-17.6,31.356,-8.48,24.588,-8.48
C23.868,-8.48,24.012,-7.68,24.731,-6.88
C26.171,-4.48,28.043,-1.6,31.067,-1.6H38.051
C38.051,-1.6,43.199,-1.12,43.199,-12.32V-16.16
C43.199,-24.16,35.171,-24.32,35.171,-24.32H21.275L18.179,-33.6H35.099
C35.099,-33.6,48.299,-33.44,48.299,-12.8V-3.52
C48.299,8,35.388,7.7,35.388,7.7H25.596
C19.836,7.7,22.14,11.04,22.14,11.04
C17.532,8.32,16.668,-0.48,23.724,-1.76
C22.86,-2.24,19.26,-5.28,19.26,-7.68Z
M61.968,-27.68V-24.96
C61.968,-22.4,57.864,-16.16,57.864,-11.76
C57.864,-9.52,61.32,-1.5,64.92,-1.5H75
C75,-1.5,80.4,-1.04,80.4,-8.48V-31.12
C80.4,-36.08,84.6,-32.4,84.6,-31.12V-0.88
C84.6,8,78.096,7.7,78.096,7.7H60.168
C54.408,7.7,56.712,11.04,56.712,11.04
C51.672,8.16,51.24,-1.6,59.736,-1.6
C55.776,-1.6,53.472,-10.4,53.472,-12.24
C53.472,-15.44,57.792,-20.64,57.792,-22.24
C57.792,-24.48,56.496,-24.32,56.496,-24.32
C51.456,-24.32,51.312,-33.6,56.496,-33.6H57.936
C57.936,-33.6,61.968,-33.44,61.968,-27.84Z
M-302.8,-155.7H-320.56
C-326.959,-155.7,-324.399,-152.36,-324.399,-152.36
C-329.999,-155.24,-330.479,-165,-320.56,-165H-306.48
C-300.72,-165,-304.7,-166.92,-304.7,-170.6V-194.44
C-304.7,-199.56,-300.1,-195.719,-300.1,-194.44V-171.4
C-300.1,-166.6,-290.64,-155.7,-302.8,-155.7Z
M-277,-161.32
C-277,-155.4,-281.9,-155.7,-281.9,-155.7H-282.86
C-289.26,-155.7,-286.859,-152.68,-286.859,-152.68
C-292.299,-155.4,-292.619,-165,-285.58,-165
C-285.58,-165,-281.6,-164.52,-281.6,-169.48V-194.44
C-281.6,-199.56,-277,-195.72,-277,-194.44Z
M-270,-194.44
C-270,-199.4,-265.4,-195.72,-265.4,-194.44V-178.28
C-265.4,-173.32,-270,-177,-270,-178.28Z
M-250.7,-165
C-250.54,-165,-246.8,-164.52,-246.8,-169.16V-194.439
C-246.8,-199.399,-242.2,-195.719,-242.2,-194.439
C-242.22,-194.439,-242.2,-178.92,-242.2,-169.16
C-242.2,-164.52,-239.18,-164.2,-239.18,-160.2
C-239.18,-157.96,-240.3,-155.7,-242.38,-155.7H-265.26
C-271.66,-155.7,-269.1,-152.36,-269.1,-152.36
C-274.7,-155.24,-275.18,-165,-265.74,-165Z
M240.2,-169V-194.44
C240.2,-199.4,244.8,-195.719,244.8,-194.44V-169
C244.8,-164.52,250.22,-165,250.22,-165H259.5
C259.659,-165,263.399,-164.52,263.399,-169.16V-194.44
C263.399,-199.4,267.999,-195.719,267.999,-194.44V-169
C271.679,-164.36,275.819,-155.7,263.179,-155.7H244.939
C238.54,-155.7,241.1,-152.36,241.1,-152.36
C235.5,-155.24,235.02,-165,244.459,-165
C242.86,-165,240.2,-166.76,240.2,-169Z
M299.18,-187.72
C291.98,-187.72,280.94,-187.72,280.94,-187.72H280.14L276.7,-197H301.26
C301.26,-197,309.58,-197.16,309.58,-191.24
C309.58,-186.28,299.66,-179.56,297.1,-175.24
C299.18,-172.04,303.98,-167.56,303.98,-167.56
C306.22,-171.08,309.9,-170.44,309.9,-161.16
C309.9,-155.72,304.3,-155.7,304.3,-155.7H303.5
C297.1,-155.7,299.5,-152.681,299.5,-152.681
C294.06,-155.401,293.58,-165,300.62,-165
C299.66,-165.32,294.38,-171.4,294.7,-171.4
C294.7,-171.4,291.34,-172.84,291.34,-161.321
C291.34,-155.721,286.541,-155.701,286.541,-155.701H285.741
C279.341,-155.701,281.741,-152.681,281.741,-152.681
C276.301,-155.401,275.341,-165.001,282.861,-165.001
C283.821,-165.001,285.741,-164.041,286.701,-169.481
C288.141,-176.201,295.821,-183.561,299.181,-186.281
C301.26,-187.72,299.98,-187.72,299.181,-187.72Z
M317.74,-187.72L314.3,-197H324.3
C324.3,-197,332.599,-196.84,332.599,-187.72V-161.32
C332.599,-155.4,327.82,-155.7,327.82,-155.7H327.02
C320.62,-155.7,323.02,-152.68,323.02,-152.68
C317.58,-155.4,317.1,-165,323.98,-165
C323.98,-165,328,-164.52,328,-169.48V-183.72
C328,-187.56,324.3,-187.72,324.3,-187.72Z
M-29.8,-319H-47.56
C-53.96,-319,-51.399,-315.66,-51.399,-315.66
C-56.999,-318.54,-57.479,-328.3,-47.56,-328.3H-33.48
C-27.72,-328.3,-31.7,-330.22,-31.7,-333.9V-357.74
C-31.7,-362.859,-27.1,-359.019,-27.1,-357.74V-334.7
C-27.1,-329.9,-17.64,-319,-29.8,-319Z
M-4.3,-324.62
C-4.3,-318.7,-9.2,-319,-9.2,-319H-10.16
C-16.56,-319,-14.159,-315.98,-14.159,-315.98
C-19.599,-318.7,-19.919,-328.3,-12.88,-328.3
C-12.88,-328.3,-8.9,-327.82,-8.9,-332.78V-357.74
C-8.9,-362.86,-4.3,-359.02,-4.3,-357.74Z
M1.6,-337.9V-344.3
C1.6,-358.54,11.36,-360.3,13.76,-360.3H21.76
C24.159,-360.3,33.899,-358.54,33.899,-344.3V-330.22
C33.899,-318.7,19.52,-319,19.52,-319H8.8
C2.4,-319,4.8,-315.66,4.8,-315.66
C-0.64,-318.54,-1.28,-329.26,8.8,-328.3
C8.8,-328.3,1.6,-333.58,1.6,-337.9Z
M6.2,-344.3V-337.9
C6.2,-333.42,13.44,-328.3,13.44,-328.3H22.48
C22.48,-328.3,29.3,-327.82,29.3,-339.02V-341.1
C29.3,-350.86,20.64,-351.02,20.64,-351.02H13.28
C13.28,-351.02,6.2,-350.7,6.2,-344.3Z
M44.68,-334.54
C41.16,-338.54,46.6,-338.22,48.04,-336.46
C49.96,-334.38,52.36,-331.98,52.36,-329.42V-324.62
C52.36,-318.7,47.4,-319,47.4,-319H46.44
C40.04,-319,42.44,-315.98,42.44,-315.98
C37,-318.7,36.68,-328.3,43.72,-328.3
C43.72,-328.3,50.6,-327.18,47.72,-330.7
C47.72,-330.7,45.8,-333.1,44.68,-334.54Z
M-73.48,-681.18V-678.46
C-73.48,-675.9,-78.04,-669.66,-78.04,-665.26
C-78.04,-663.02,-74.2,-655,-70.2,-655H-59
C-59,-655,-53,-654.54,-53,-661.98V-684.62
C-53,-689.58,-48.4,-685.9,-48.4,-684.62V-654.38
C-48.4,-645.5,-55.56,-645.8,-55.56,-645.8H-75.48
C-81.88,-645.8,-79.32,-642.46,-79.32,-642.46
C-84.92,-645.34,-85.4,-655.1,-75.96,-655.1
C-80.36,-655.1,-82.92,-663.9,-82.92,-665.74
C-82.92,-668.94,-78.12,-674.14,-78.12,-675.74
C-78.12,-677.98,-79.56,-677.82,-79.56,-677.82
C-85.16,-677.82,-85.32,-687.1,-79.56,-687.1H-77.96
C-77.96,-687.1,-73.48,-686.94,-73.48,-681.34Z
M-29.9,-651.42
C-29.9,-645.5,-34.8,-645.8,-34.8,-645.8H-35.76
C-42.16,-645.8,-39.76,-642.78,-39.76,-642.78
C-45.2,-645.5,-45.519,-655.1,-38.48,-655.1
C-38.48,-655.1,-34.5,-654.62,-34.5,-659.58V-684.54
C-34.5,-689.66,-29.9,-685.82,-29.9,-684.54Z
M-21.96,-677.82L-25.4,-687.1H-6.6
C-6.6,-687.1,8.1,-686.94,8.1,-666.3V-657.02
C8.1,-645.5,-6.28,-645.8,-6.28,-645.8H-17.16
C-23.56,-645.8,-21,-642.46,-21,-642.46
C-26.6,-645.34,-27.08,-655.1,-17.16,-655.1H-3.32
C-3.32,-655.1,2.44,-654.62,2.44,-665.82V-669.66
C2.44,-677.66,-6.52,-677.82,-6.52,-677.82Z
M12.26,-649.18
C12.26,-652.22,14.66,-655.1,19.94,-655.1H36.74
C36.74,-655.1,40.599,-654.62,40.599,-659.58V-661.66
C40.599,-669.659,24.901,-673.5,23.139,-679.58
C19.62,-691.74,37.059,-687.099,28.259,-680.219
C28.099,-680.06,27.94,-679.58,28.259,-679.42
C30.659,-677.66,45.199,-670.94,45.199,-661.66V-651.58
C45.199,-645.66,40.419,-645.8,40.419,-645.8H19.94
C17.7,-645.8,15.62,-644.046,20.259,-640.22
C21.859,-638.781,22.999,-637.5,22.999,-635.421
C22.999,-630.621,14.819,-631.741,14.819,-635.101
C14.819,-636.701,18.399,-635.741,18.399,-637.341
C18.399,-638.301,12.259,-640.221,12.259,-649.181Z
M70.42,-645.8H68.02
C62.1,-645.8,65.78,-647.08,64.66,-651.72H62.26
C62.26,-645.82,59.54,-645.8,59.54,-645.8H58.74
C52.341,-645.8,54.741,-642.78,54.741,-642.78
C49.301,-645.5,48.341,-654.92,55.861,-654.92
C60.66,-654.92,50.901,-658.608,50.901,-664.7V-684.54
C50.901,-689.5,55.5,-685.819,55.5,-684.54V-665.34
C55.5,-663.58,62.086,-655.1,65.62,-655.1H67.54
C71.38,-655.1,78.6,-662.619,78.6,-669.979V-673.819
C78.6,-677.659,74.9,-677.819,74.9,-677.819H62.9L59.46,-687.099H75.06
C75.06,-687.099,83.2,-686.939,83.2,-677.819V-666.779
C83.2,-657.659,72.177,-645.799,70.42,-645.799Z"/>
<!-- Hebrew letters -->
<path fill="rgb(76,76,76)" d="M13.2,439.3H-4.56
C-10.96,439.3,-8.4,442.64,-8.4,442.64
C-14,439.76,-14.48,430,-4.56,430H9.52
C15.28,430,11.3,428.08,11.3,424.4V400.56
C11.3,395.44,15.9,399.28,15.9,400.56V423.6
C15.9,428.4,25.36,439.3,13.2,439.3Z
M-141.9,585.68
C-141.9,591.6,-146.8,591.3,-146.8,591.3H-147.76
C-154.16,591.3,-151.76,594.32,-151.76,594.32
C-157.199,591.6,-157.519,582,-150.48,582
C-150.48,582,-146.5,582.48,-146.5,577.52V552.56
C-146.5,547.44,-141.9,551.28,-141.9,552.56Z
M130.7,558.56
C130.7,553.6,135.3,557.28,135.3,558.56V574.72
C135.3,579.68,130.7,576,130.7,574.72Z
M150,588
C150.16,588,153.9,588.48,153.9,583.84V558.56
C153.9,553.6,158.5,557.28,158.5,558.56
C158.48,558.56,158.5,574.08,158.5,583.84
C158.5,588.48,161.519,588.8,161.519,592.8
C161.519,595.04,160.399,597.3,158.319,597.3H135.439
C129.04,597.3,131.6,600.639,131.6,600.639
C126,597.76,125.52,588,134.959,588Z
M79.84,479.28H76.96
C76,479.28,74.4,480.72,75.2,482.32
C78.88,490.479,84.8,507.919,80.16,510.319
C78.4,511.279,76.48,510.639,76,514.319
C70.4,511.599,69.92,502.159,76.96,502.159
C76.96,502.159,71.52,479.279,66.4,479.279
C64.16,479.279,62.841,482.159,62.841,484.399V489.999
C62.841,496.079,72,507.119,66.081,510.319
C64.161,511.279,62.401,510.639,61.761,514.319
C56.321,511.599,55.681,502.159,62.721,502.159
C62.721,502.159,58.401,493.999,58.401,489.519V477.199
C58.401,470.319,63.361,469.999,63.361,469.999H80.001
C85.921,469.999,100,507.919,95.361,510.319
C93.601,511.279,90.561,510.639,89.921,514.319
C84.481,511.599,84.001,502.159,90.881,502.159
C90.881,502.159,85.281,479.279,79.841,479.279Z
M-128.3,400V374.56
C-128.3,369.6,-123.7,373.28,-123.7,374.56V400
C-123.7,404.48,-118.28,404,-118.28,404H-109
C-108.84,404,-105.1,404.479,-105.1,399.84V374.56
C-105.1,369.6,-100.5,373.28,-100.5,374.56V400
C-96.821,404.64,-92.681,413.3,-105.32,413.3H-123.56
C-129.96,413.3,-127.4,416.639,-127.4,416.639
C-133,413.76,-133.48,404,-124.04,404
C-125.64,404,-128.3,402.24,-128.3,400Z
M117.52,401.44
C119.12,402.48,124.8,413.5,111.84,413.5L110.8,413.6
C105.2,413.6,104.56,415.119,103.84,416.32
C102.32,415.36,97.52,405.28,108.16,404.4
C103.6,395.92,109.98,389.52,109.1,374.56
C109.1,369.6,112.7,373.28,112.7,374.56
C116.14,388.212,108.8,396.995,111.92,404.18
C116.88,404.023,116.88,402.614,117.52,401.44Z
M-199.52,335.76
C-203.04,331.76,-197.6,332.08,-196.16,333.84
C-194.24,335.92,-191.84,338.32,-191.84,340.88V345.679
C-191.84,351.599,-196.8,351.299,-196.8,351.299H-197.76
C-204.16,351.299,-201.76,354.319,-201.76,354.319
C-207.2,351.599,-207.52,341.999,-200.48,341.999
C-200.48,341.999,-193.6,343.119,-196.48,339.599
C-196.48,339.599,-198.4,337.199,-199.52,335.76Z
M192.16,337.04
C191.52,335.6,193.28,334.64,193.76,336.24
C195.68,341.52,197.12,342,198.56,342
C198.56,342,201.899,342.64,201.899,335.44V334.48
C201.899,330.64,196.628,319.28,190.24,319.28H183.52
C183.52,319.28,179,319.12,179,323.44V331.76
C179,335.12,180.137,334.96,181.6,336.56
C182.08,336.4,184,335.28,183.679,332.72
C186.559,333.68,188.319,335.6,188.319,338.32
C188.319,342.159,188.959,343.119,185.919,346.159
C183.84,348.239,180.959,349.199,180.479,354.319
C178.72,352.079,176.64,351.28,176.64,346.479
C176.64,341.84,177.439,342.48,179.04,339.76
C176.16,336.72,174.4,335.12,174.4,331.76V319.28
C174.4,313.2,179.36,310,182.24,310H190.399
C200.159,310,206.499,325.36,206.499,334.48V345.68
C206.499,351.6,201.599,351.3,201.599,351.3H196
C196,351.3,194.1,351.139,194.1,349.04
C194.1,347.12,194.56,343.92,192.16,337.04Z
M-278,319.36V339.68
C-278,345.6,-282.8,345.3,-282.8,345.3H-283.439
C-289.999,345.3,-287.439,348.319,-287.439,348.319
C-293.039,345.599,-293.519,336,-286.479,336
C-286.479,336,-282.599,336.479,-282.599,331.52V319.2
C-282.599,313.28,-286.959,313.28,-286.959,313.28H-288.559
C-294.159,313.28,-294.319,304,-288.559,304H-287.919
C-285.199,304,-282.959,307.2,-281.039,310.4
C-279.439,308.96,-278.319,306.72,-277.839,305.92
C-275.28,301.76,-271.28,305.12,-273.359,308.48
C-275.279,311.68,-277.839,312.479,-277.999,319.36Z
M271.56,313.28L268.12,304H299.48L302.92,313.28H300.28
C300.28,313.28,298.7,313.28,298.7,315.68V339.679
C298.7,345.599,293.72,345.299,293.72,345.299H275.96
C269.56,345.299,272.12,348.639,272.12,348.639
C266.521,345.759,266.041,335.999,275.96,335.999H290.04
C290.04,335.999,294.1,336.479,294.1,331.519V317.279
C294.1,313.439,290.36,313.28,290.36,313.28Z
M29.44,186.82
C20.48,176.42,31.04,170.98,33.6,168.1
C32.32,163.78,26.4,162.82,26.4,158.02V151.94
C26.4,148.26,28.8,149.38,28.8,147.46
C28.8,145.38,23.52,142.5,28.32,142.5
C31.52,142.5,33.28,142.5,36.32,142.5
C42.72,142.5,41.599,146.82,39.04,150.5
C36.64,153.22,33.12,155.14,33.12,158.02
C33.12,162.02,35.36,162.34,37.119,163.94
C56.319,146.34,51.039,150.98,55.519,142.5
C63.199,152.58,55.359,158.66,49.279,164.58
C50.559,167.619,51.679,167.459,53.599,169.379
C55.519,167.939,54.399,165.219,55.679,165.219
C59.839,165.219,59.199,171.459,58.879,175.619
C58.239,181.059,53.439,181.219,50.559,186.819
C44.959,179.619,49.119,173.54,49.919,173.06
C48.799,170.66,48.479,169.54,46.079,168.1
C32.159,179.3,31.679,181.859,29.44,186.82Z
M-150.36,72.28L-153.8,63H-143.8
C-143.8,63,-135.5,63.16,-135.5,72.28V98.68
C-135.5,104.6,-140.28,104.3,-140.28,104.3H-141.08
C-147.48,104.3,-145.08,107.319,-145.08,107.319
C-150.52,104.599,-151,95,-144.12,95
C-144.12,95,-140.1,95.48,-140.1,90.52V76.28
C-140.1,72.44,-143.8,72.28,-143.8,72.28Z
M123.76,91.92
C123.76,88.88,126.16,86,131.44,86H148.24
C148.24,86,152.099,86.48,152.099,81.52V79.44
C152.099,71.44,136.401,67.6,134.639,61.52
C131.12,49.36,148.559,54,139.759,60.88
C139.599,61.04,139.439,61.52,139.759,61.68
C142.159,63.44,156.699,70.16,156.699,79.44V89.52
C156.699,95.44,151.919,95.3,151.919,95.3H131.439
C129.199,95.3,127.12,97.054,131.759,100.879
C133.359,102.319,134.499,103.599,134.499,105.679
C134.499,110.479,126.319,109.359,126.319,105.999
C126.319,104.399,129.899,105.359,129.899,103.759
C129.899,102.799,123.759,100.879,123.759,91.919Z
M-125.1,-78.88
C-125.04,-76.32,-125.1,-74.56,-125.1,-72
C-121.74,-72,-120.08,-62.7,-127.92,-62.7H-128.719
C-135.119,-62.7,-132.719,-59.52,-132.719,-59.52
C-138.799,-64,-138.159,-71.82,-129.679,-71.98
C-129.679,-71.98,-129.699,-73.746,-129.699,-77.92
C-129.699,-82.4,-132.889,-85.92,-136.239,-88.16
C-141.679,-83.68,-145.399,-81.12,-145.399,-78.72
C-145.359,-76.16,-145.399,-74.56,-145.399,-72
C-138.679,-72,-138.319,-62.7,-146.159,-62.7H-146.958
C-153.358,-62.7,-150.958,-59.681,-150.958,-59.681
C-156.398,-62.401,-156.878,-72,-149.998,-72
C-149.998,-72,-149.998,-76.64,-149.998,-79.68
C-149.998,-85.6,-145.838,-87.04,-142.318,-90.56
C-142.318,-90.56,-149.518,-93.28,-154.158,-95.36
C-158.158,-96.96,-157.038,-104,-151.918,-104
C-151.918,-104,-125.098,-98.88,-125.098,-78.88Z
M126.4,-79.6V-86
C126.4,-100.24,136.16,-102,138.56,-102H146.56
C148.959,-102,158.699,-100.24,158.699,-86V-71.92
C158.699,-60.4,144.32,-60.7,144.32,-60.7H133.6
C127.2,-60.7,129.6,-57.36,129.6,-57.36
C124.16,-60.24,123.52,-70.96,133.6,-70
C133.6,-70,126.4,-75.28,126.4,-79.6Z
M131,-86V-79.6
C131,-75.12,138.24,-70,138.24,-70H147.28
C147.28,-70,154.099,-69.52,154.099,-80.72V-82.8
C154.099,-92.56,145.439,-92.72,145.439,-92.72H138.08
C138.08,-92.72,131,-92.4,131,-86Z
M-297.6,2.92V-2.2
C-297.6,-4.76,-296.64,-7,-292.16,-7
C-283.68,-7,-284.16,2.12,-291.68,2.12
C-292.48,2.12,-292.32,2.92,-291.52,3.72
C-289.92,6.12,-287.84,9,-284.48,9H-276.72
C-276.72,9,-271,9.48,-271,-1.72V-5.56
C-271,-13.56,-279.92,-13.72,-279.92,-13.72H-295.36L-298.8,-23H-280
C-280,-23,-265.301,-22.84,-265.301,-2.2V7.08
C-265.301,18.6,-279.68,18.3,-279.68,18.3H-290.56
C-296.96,18.3,-294.4,21.64,-294.4,21.64
C-299.52,18.92,-300.48,10.12,-292.64,8.84
C-293.6,8.36,-297.6,5.32,-297.6,2.92Z
M269.64,-13.72L266.2,-23H285
C285,-23,299.7,-22.84,299.7,-2.2V7.08
C299.7,18.6,285.32,18.3,285.32,18.3H274.44
C268.04,18.3,270.6,21.64,270.6,21.64
C265,18.76,264.52,9,274.44,9H288.28
C288.28,9,294.04,9.48,294.04,-1.72V-5.56
C294.04,-13.56,285.08,-13.72,285.08,-13.72Z
M97.92,-142.3H95.52
C89.6,-142.3,93.28,-143.58,92.16,-148.22H89.76
C89.76,-142.32,87.04,-142.3,87.04,-142.3H86.24
C79.841,-142.3,82.241,-139.28,82.241,-139.28
C76.801,-142,75.841,-151.42,83.361,-151.42
C88.16,-151.42,78.401,-155.108,78.401,-161.2V-181.04
C78.401,-186,83,-182.319,83,-181.04V-161.84
C83,-160.08,89.586,-151.6,93.12,-151.6H95.04
C98.88,-151.6,106.1,-159.119,106.1,-166.479V-170.319
C106.1,-174.159,102.4,-174.319,102.4,-174.319H90.4L86.96,-183.599H102.56
C102.56,-183.599,110.7,-183.439,110.7,-174.319V-163.279
C110.7,-154.159,99.677,-142.299,97.92,-142.299Z
M15.7,-192.42
C15.7,-180.9,1.32,-181.2,1.32,-181.2H-9.56
C-15.96,-181.2,-13.4,-177.86,-13.4,-177.86
C-19,-180.74,-19.48,-190.5,-9.56,-190.5H4.28
C4.28,-190.5,11.1,-190.02,11.1,-201.22V-220.1
C11.1,-224.9,15.7,-221.22,15.7,-220.1Z
M-153.3,-273.2
C-153.3,-278.16,-148.7,-274.48,-148.7,-273.2V-242.4
C-148.7,-237.6,-153.3,-241.28,-153.3,-242.4Z
M-127.9,-239.76
C-127.9,-244.24,-140.88,-252.24,-140.88,-257.36
C-140.88,-263.6,-136.72,-263.6,-136.72,-257.36
C-136.72,-253.2,-123.3,-245.2,-123.3,-239.76V-229.44
C-123.3,-220.56,-130.48,-220.7,-130.48,-220.7H-148.56
C-154.96,-220.7,-152.56,-217.519,-152.4,-217.36
C-158,-220.24,-158.479,-230,-148.56,-230H-133.92
C-133.92,-230,-127.9,-229.52,-127.9,-236.96Z
M147.68,-256.72
C140.48,-256.72,129.44,-256.72,129.44,-256.72H128.64L125.2,-266H149.76
C149.76,-266,158.08,-266.16,158.08,-260.24
C158.08,-255.28,148.16,-248.56,145.6,-244.24
C147.68,-241.04,152.48,-236.56,152.48,-236.56
C154.72,-240.08,158.4,-239.44,158.4,-230.16
C158.4,-224.72,152.8,-224.7,152.8,-224.7H152
C145.6,-224.7,148,-221.681,148,-221.681
C142.56,-224.401,142.08,-234,149.12,-234
C148.16,-234.32,142.88,-240.4,143.2,-240.4
C143.2,-240.4,139.84,-241.84,139.84,-230.321
C139.84,-224.721,135.041,-224.701,135.041,-224.701H134.241
C127.841,-224.701,130.241,-221.681,130.241,-221.681
C124.801,-224.401,123.841,-234.001,131.361,-234.001
C132.321,-234.001,134.241,-233.041,135.201,-238.481
C136.641,-245.201,144.321,-252.561,147.681,-255.281
C149.76,-256.72,148.48,-256.72,147.681,-256.72Z
M-8.98,-510.08V-507.36
C-8.98,-504.8,-13.54,-498.56,-13.54,-494.16
C-13.54,-491.92,-9.7,-483.9,-5.7,-483.9H5.5
C5.5,-483.9,11.5,-483.44,11.5,-490.88V-513.52
C11.5,-518.48,16.1,-514.8,16.1,-513.52V-483.28
C16.1,-474.4,8.94,-474.7,8.94,-474.7H-10.98
C-17.38,-474.7,-14.82,-471.36,-14.82,-471.36
C-20.42,-474.24,-20.9,-484,-11.46,-484
C-15.86,-484,-18.42,-492.8,-18.42,-494.64
C-18.42,-497.84,-13.62,-503.04,-13.62,-504.64
C-13.62,-506.88,-15.06,-506.72,-15.06,-506.72
C-20.66,-506.72,-20.82,-516,-15.06,-516H-13.46
C-13.46,-516,-8.98,-515.84,-8.98,-510.24Z"/>
</g></svg>