<svg width="100%" height="100%" viewBox="0 0 32 32" xmlns="http://www.w3.org/2000/svg">
    <path d="M16.024,6.276C14.272,6.276 12.856,7.692 12.856,9.444C12.856,11.196 14.272,12.612 16.024,12.612C17.776,12.612 19.192,11.196 19.192,9.444C19.192,7.692 17.776,6.276 16.024,6.276Z"/>
    <path d="M12.04,21.828C12.04,20.076 10.624,18.66 8.872,18.66C7.144,18.66 5.704,20.1 5.704,21.828C5.704,23.556 7.144,24.996 8.872,24.996C10.624,24.996 12.04,23.58 12.04,21.828Z"/>
    <path d="M26.344,21.828C26.344,20.076 24.928,18.66 23.176,18.66C21.448,18.66 20.008,20.1 20.008,21.828C20.008,23.556 21.448,24.996 23.176,24.996C24.928,24.996 26.344,23.556 26.344,21.828Z"/>
</svg>
